<svg xmlns="http://www.w3.org/2000/svg" xmlns:xlink="http://www.w3.org/1999/xlink" width="200" zoomAndPan="magnify" viewBox="0 0 150 56.249996" height="75" preserveAspectRatio="xMidYMid meet" version="1.0"><defs><g/><clipPath id="a0c0652d91"><path d="M 26 54 L 28 54 L 28 55.511719 L 26 55.511719 Z M 26 54 " clip-rule="nonzero"/></clipPath></defs><g fill="#ffffff" fill-opacity="1"><g transform="translate(55.205773, 26.864918)"><g><path d="M 0.546875 -6.390625 C 0.546875 -7.148438 0.6875 -7.898438 0.96875 -8.640625 C 1.25 -9.378906 1.65625 -10.050781 2.1875 -10.65625 C 2.71875 -11.269531 3.363281 -11.753906 4.125 -12.109375 C 4.894531 -12.472656 5.769531 -12.65625 6.75 -12.65625 C 7.914062 -12.65625 8.921875 -12.398438 9.765625 -11.890625 C 10.609375 -11.390625 11.238281 -10.726562 11.65625 -9.90625 L 9.765625 -8.625 C 9.554688 -9.09375 9.28125 -9.460938 8.9375 -9.734375 C 8.59375 -10.015625 8.222656 -10.210938 7.828125 -10.328125 C 7.441406 -10.441406 7.0625 -10.5 6.6875 -10.5 C 6.070312 -10.5 5.535156 -10.375 5.078125 -10.125 C 4.617188 -9.875 4.234375 -9.546875 3.921875 -9.140625 C 3.617188 -8.742188 3.394531 -8.296875 3.25 -7.796875 C 3.101562 -7.304688 3.03125 -6.8125 3.03125 -6.3125 C 3.03125 -5.757812 3.117188 -5.222656 3.296875 -4.703125 C 3.472656 -4.191406 3.722656 -3.738281 4.046875 -3.34375 C 4.378906 -2.945312 4.769531 -2.632812 5.21875 -2.40625 C 5.675781 -2.175781 6.175781 -2.0625 6.71875 -2.0625 C 7.113281 -2.0625 7.507812 -2.125 7.90625 -2.25 C 8.3125 -2.382812 8.6875 -2.59375 9.03125 -2.875 C 9.375 -3.15625 9.640625 -3.519531 9.828125 -3.96875 L 11.828125 -2.8125 C 11.578125 -2.1875 11.171875 -1.65625 10.609375 -1.21875 C 10.046875 -0.78125 9.414062 -0.445312 8.71875 -0.21875 C 8.019531 0 7.332031 0.109375 6.65625 0.109375 C 5.75 0.109375 4.921875 -0.078125 4.171875 -0.453125 C 3.429688 -0.828125 2.789062 -1.320312 2.25 -1.9375 C 1.71875 -2.5625 1.300781 -3.257812 1 -4.03125 C 0.695312 -4.8125 0.546875 -5.597656 0.546875 -6.390625 Z M 0.546875 -6.390625 "/></g></g></g><g fill="#ffffff" fill-opacity="1"><g transform="translate(67.36754, 26.864918)"><g><path d="M 0.4375 -2.75 C 0.4375 -3.351562 0.601562 -3.878906 0.9375 -4.328125 C 1.28125 -4.785156 1.753906 -5.140625 2.359375 -5.390625 C 2.960938 -5.640625 3.65625 -5.765625 4.4375 -5.765625 C 4.820312 -5.765625 5.210938 -5.734375 5.609375 -5.671875 C 6.015625 -5.617188 6.367188 -5.523438 6.671875 -5.390625 L 6.671875 -5.890625 C 6.671875 -6.484375 6.492188 -6.9375 6.140625 -7.25 C 5.796875 -7.570312 5.28125 -7.734375 4.59375 -7.734375 C 4.082031 -7.734375 3.597656 -7.644531 3.140625 -7.46875 C 2.679688 -7.289062 2.195312 -7.03125 1.6875 -6.6875 L 0.921875 -8.25 C 1.535156 -8.644531 2.164062 -8.941406 2.8125 -9.140625 C 3.457031 -9.347656 4.132812 -9.453125 4.84375 -9.453125 C 6.164062 -9.453125 7.195312 -9.117188 7.9375 -8.453125 C 8.675781 -7.796875 9.046875 -6.851562 9.046875 -5.625 L 9.046875 -2.65625 C 9.046875 -2.40625 9.085938 -2.226562 9.171875 -2.125 C 9.265625 -2.019531 9.410156 -1.957031 9.609375 -1.9375 L 9.609375 0 C 9.398438 0.03125 9.207031 0.0546875 9.03125 0.078125 C 8.863281 0.109375 8.71875 0.125 8.59375 0.125 C 8.125 0.125 7.769531 0.0195312 7.53125 -0.1875 C 7.289062 -0.40625 7.140625 -0.664062 7.078125 -0.96875 L 7.015625 -1.453125 C 6.617188 -0.929688 6.117188 -0.53125 5.515625 -0.25 C 4.910156 0.03125 4.296875 0.171875 3.671875 0.171875 C 3.054688 0.171875 2.503906 0.046875 2.015625 -0.203125 C 1.523438 -0.453125 1.140625 -0.800781 0.859375 -1.25 C 0.578125 -1.695312 0.4375 -2.195312 0.4375 -2.75 Z M 6.21875 -2.265625 C 6.351562 -2.410156 6.460938 -2.550781 6.546875 -2.6875 C 6.628906 -2.832031 6.671875 -2.960938 6.671875 -3.078125 L 6.671875 -4.03125 C 6.390625 -4.144531 6.082031 -4.234375 5.75 -4.296875 C 5.414062 -4.359375 5.101562 -4.390625 4.8125 -4.390625 C 4.195312 -4.390625 3.691406 -4.253906 3.296875 -3.984375 C 2.898438 -3.722656 2.703125 -3.375 2.703125 -2.9375 C 2.703125 -2.707031 2.765625 -2.484375 2.890625 -2.265625 C 3.015625 -2.054688 3.203125 -1.882812 3.453125 -1.75 C 3.703125 -1.625 4 -1.5625 4.34375 -1.5625 C 4.695312 -1.5625 5.046875 -1.628906 5.390625 -1.765625 C 5.734375 -1.898438 6.007812 -2.066406 6.21875 -2.265625 Z M 6.21875 -2.265625 "/></g></g></g><g fill="#ffffff" fill-opacity="1"><g transform="translate(77.543704, 26.864918)"><g><path d="M 9.71875 0 L 7.34375 0 L 7.34375 -5.21875 C 7.34375 -5.957031 7.210938 -6.5 6.953125 -6.84375 C 6.691406 -7.1875 6.332031 -7.359375 5.875 -7.359375 C 5.550781 -7.359375 5.226562 -7.273438 4.90625 -7.109375 C 4.582031 -6.941406 4.289062 -6.710938 4.03125 -6.421875 C 3.769531 -6.140625 3.578125 -5.804688 3.453125 -5.421875 L 3.453125 0 L 1.078125 0 L 1.078125 -9.296875 L 3.234375 -9.296875 L 3.234375 -7.578125 C 3.460938 -7.972656 3.757812 -8.3125 4.125 -8.59375 C 4.5 -8.875 4.925781 -9.085938 5.40625 -9.234375 C 5.882812 -9.378906 6.390625 -9.453125 6.921875 -9.453125 C 7.492188 -9.453125 7.96875 -9.347656 8.34375 -9.140625 C 8.71875 -8.929688 9 -8.648438 9.1875 -8.296875 C 9.382812 -7.953125 9.519531 -7.5625 9.59375 -7.125 C 9.675781 -6.6875 9.71875 -6.242188 9.71875 -5.796875 Z M 9.71875 0 "/></g></g></g><g fill="#ffffff" fill-opacity="1"><g transform="translate(88.251725, 26.864918)"><g><path d="M 6.65625 -0.484375 C 6.445312 -0.398438 6.203125 -0.300781 5.921875 -0.1875 C 5.640625 -0.0820312 5.332031 0 5 0.0625 C 4.675781 0.125 4.351562 0.15625 4.03125 0.15625 C 3.59375 0.15625 3.1875 0.0820312 2.8125 -0.0625 C 2.445312 -0.21875 2.15625 -0.460938 1.9375 -0.796875 C 1.71875 -1.140625 1.609375 -1.582031 1.609375 -2.125 L 1.609375 -7.46875 L 0.390625 -7.46875 L 0.390625 -9.296875 L 1.609375 -9.296875 L 1.609375 -12.3125 L 3.984375 -12.3125 L 3.984375 -9.296875 L 5.9375 -9.296875 L 5.9375 -7.46875 L 3.984375 -7.46875 L 3.984375 -2.921875 C 4.003906 -2.609375 4.09375 -2.378906 4.25 -2.234375 C 4.414062 -2.085938 4.625 -2.015625 4.875 -2.015625 C 5.125 -2.015625 5.363281 -2.054688 5.59375 -2.140625 C 5.832031 -2.222656 6.023438 -2.296875 6.171875 -2.359375 Z M 6.65625 -0.484375 "/></g></g></g><g fill="#ffffff" fill-opacity="1"><g transform="translate(95.059476, 26.864918)"><g><path d="M 5.375 0.171875 C 4.613281 0.171875 3.929688 0.046875 3.328125 -0.203125 C 2.722656 -0.453125 2.210938 -0.800781 1.796875 -1.25 C 1.378906 -1.707031 1.054688 -2.222656 0.828125 -2.796875 C 0.609375 -3.378906 0.5 -3.988281 0.5 -4.625 C 0.5 -5.28125 0.609375 -5.894531 0.828125 -6.46875 C 1.054688 -7.050781 1.378906 -7.566406 1.796875 -8.015625 C 2.210938 -8.460938 2.722656 -8.8125 3.328125 -9.0625 C 3.929688 -9.320312 4.613281 -9.453125 5.375 -9.453125 C 6.132812 -9.453125 6.8125 -9.320312 7.40625 -9.0625 C 8 -8.8125 8.507812 -8.460938 8.9375 -8.015625 C 9.363281 -7.566406 9.6875 -7.050781 9.90625 -6.46875 C 10.125 -5.894531 10.234375 -5.28125 10.234375 -4.625 C 10.234375 -3.988281 10.125 -3.378906 9.90625 -2.796875 C 9.6875 -2.222656 9.363281 -1.707031 8.9375 -1.25 C 8.519531 -0.800781 8.007812 -0.453125 7.40625 -0.203125 C 6.8125 0.046875 6.132812 0.171875 5.375 0.171875 Z M 2.9375 -4.625 C 2.9375 -4.082031 3.039062 -3.597656 3.25 -3.171875 C 3.46875 -2.753906 3.757812 -2.425781 4.125 -2.1875 C 4.5 -1.957031 4.914062 -1.84375 5.375 -1.84375 C 5.820312 -1.84375 6.226562 -1.960938 6.59375 -2.203125 C 6.957031 -2.453125 7.25 -2.785156 7.46875 -3.203125 C 7.6875 -3.617188 7.796875 -4.097656 7.796875 -4.640625 C 7.796875 -5.171875 7.6875 -5.648438 7.46875 -6.078125 C 7.25 -6.503906 6.957031 -6.835938 6.59375 -7.078125 C 6.226562 -7.316406 5.820312 -7.4375 5.375 -7.4375 C 4.914062 -7.4375 4.5 -7.3125 4.125 -7.0625 C 3.757812 -6.820312 3.46875 -6.488281 3.25 -6.0625 C 3.039062 -5.644531 2.9375 -5.164062 2.9375 -4.625 Z M 2.9375 -4.625 "/></g></g></g><g fill="#ffffff" fill-opacity="1"><g transform="translate(105.802959, 26.864918)"><g/></g></g><g fill="#ffffff" fill-opacity="1"><g transform="translate(110.0578, 26.864918)"><g><path d="M 4.734375 -12.59375 L 7.21875 -12.59375 L 11.84375 0 L 9.328125 0 L 8.15625 -3.140625 L 3.765625 -3.140625 L 2.609375 0 L 0.09375 0 Z M 7.71875 -4.859375 L 5.96875 -10.0625 L 4.171875 -4.859375 Z M 7.71875 -4.859375 "/></g></g></g><g fill="#ffffff" fill-opacity="1"><g transform="translate(121.971369, 26.864918)"><g><path d="M 6.609375 -7.234375 C 5.890625 -7.234375 5.242188 -7.09375 4.671875 -6.8125 C 4.109375 -6.539062 3.703125 -6.144531 3.453125 -5.625 L 3.453125 0 L 1.078125 0 L 1.078125 -9.296875 L 3.265625 -9.296875 L 3.265625 -7.3125 C 3.597656 -7.945312 4.015625 -8.445312 4.515625 -8.8125 C 5.023438 -9.175781 5.566406 -9.378906 6.140625 -9.421875 C 6.265625 -9.421875 6.363281 -9.421875 6.4375 -9.421875 C 6.507812 -9.421875 6.566406 -9.414062 6.609375 -9.40625 Z M 6.609375 -7.234375 "/></g></g></g><g fill="#ffffff" fill-opacity="1"><g transform="translate(128.832301, 26.864918)"><g><path d="M 6.65625 -0.484375 C 6.445312 -0.398438 6.203125 -0.300781 5.921875 -0.1875 C 5.640625 -0.0820312 5.332031 0 5 0.0625 C 4.675781 0.125 4.351562 0.15625 4.03125 0.15625 C 3.59375 0.15625 3.1875 0.0820312 2.8125 -0.0625 C 2.445312 -0.21875 2.15625 -0.460938 1.9375 -0.796875 C 1.71875 -1.140625 1.609375 -1.582031 1.609375 -2.125 L 1.609375 -7.46875 L 0.390625 -7.46875 L 0.390625 -9.296875 L 1.609375 -9.296875 L 1.609375 -12.3125 L 3.984375 -12.3125 L 3.984375 -9.296875 L 5.9375 -9.296875 L 5.9375 -7.46875 L 3.984375 -7.46875 L 3.984375 -2.921875 C 4.003906 -2.609375 4.09375 -2.378906 4.25 -2.234375 C 4.414062 -2.085938 4.625 -2.015625 4.875 -2.015625 C 5.125 -2.015625 5.363281 -2.054688 5.59375 -2.140625 C 5.832031 -2.222656 6.023438 -2.296875 6.171875 -2.359375 Z M 6.65625 -0.484375 "/></g></g></g><g fill="#ffffff" fill-opacity="1"><g transform="translate(135.640052, 26.864918)"><g><path d="M 5.390625 0.171875 C 4.648438 0.171875 3.976562 0.046875 3.375 -0.203125 C 2.769531 -0.453125 2.253906 -0.800781 1.828125 -1.25 C 1.398438 -1.695312 1.070312 -2.207031 0.84375 -2.78125 C 0.613281 -3.351562 0.5 -3.957031 0.5 -4.59375 C 0.5 -5.476562 0.695312 -6.285156 1.09375 -7.015625 C 1.488281 -7.753906 2.054688 -8.34375 2.796875 -8.78125 C 3.535156 -9.226562 4.40625 -9.453125 5.40625 -9.453125 C 6.425781 -9.453125 7.296875 -9.226562 8.015625 -8.78125 C 8.734375 -8.34375 9.285156 -7.757812 9.671875 -7.03125 C 10.054688 -6.300781 10.25 -5.519531 10.25 -4.6875 C 10.25 -4.539062 10.242188 -4.394531 10.234375 -4.25 C 10.222656 -4.101562 10.210938 -3.984375 10.203125 -3.890625 L 3.015625 -3.890625 C 3.054688 -3.410156 3.191406 -2.992188 3.421875 -2.640625 C 3.660156 -2.285156 3.957031 -2.015625 4.3125 -1.828125 C 4.675781 -1.648438 5.066406 -1.5625 5.484375 -1.5625 C 5.953125 -1.5625 6.394531 -1.675781 6.8125 -1.90625 C 7.238281 -2.132812 7.523438 -2.4375 7.671875 -2.8125 L 9.71875 -2.25 C 9.488281 -1.78125 9.164062 -1.359375 8.75 -0.984375 C 8.332031 -0.617188 7.835938 -0.332031 7.265625 -0.125 C 6.703125 0.0703125 6.078125 0.171875 5.390625 0.171875 Z M 2.96875 -5.390625 L 7.828125 -5.390625 C 7.773438 -5.859375 7.640625 -6.265625 7.421875 -6.609375 C 7.203125 -6.960938 6.914062 -7.238281 6.5625 -7.4375 C 6.207031 -7.632812 5.8125 -7.734375 5.375 -7.734375 C 4.945312 -7.734375 4.554688 -7.632812 4.203125 -7.4375 C 3.859375 -7.238281 3.578125 -6.960938 3.359375 -6.609375 C 3.140625 -6.265625 3.007812 -5.859375 2.96875 -5.390625 Z M 2.96875 -5.390625 "/></g></g></g><g fill="#ffffff" fill-opacity="1"><g transform="translate(81.462986, 41.886179)"><g><path d="M 9.109375 0 L 9.109375 -6.5 L 6.578125 -1.65625 L 5.5 -1.65625 L 2.953125 -6.5 L 2.953125 0 L 1.03125 0 L 1.03125 -9.90625 L 3.09375 -9.90625 L 6.03125 -4.265625 L 8.984375 -9.90625 L 11.03125 -9.90625 L 11.03125 0 Z M 9.109375 0 "/></g></g></g><g fill="#ffffff" fill-opacity="1"><g transform="translate(93.526951, 41.886179)"><g><path d="M 4.234375 0.140625 C 3.628906 0.140625 3.085938 0.0390625 2.609375 -0.15625 C 2.140625 -0.351562 1.738281 -0.628906 1.40625 -0.984375 C 1.082031 -1.335938 0.832031 -1.742188 0.65625 -2.203125 C 0.476562 -2.660156 0.390625 -3.140625 0.390625 -3.640625 C 0.390625 -4.148438 0.476562 -4.632812 0.65625 -5.09375 C 0.832031 -5.550781 1.082031 -5.957031 1.40625 -6.3125 C 1.738281 -6.664062 2.140625 -6.941406 2.609375 -7.140625 C 3.085938 -7.335938 3.628906 -7.4375 4.234375 -7.4375 C 4.828125 -7.4375 5.359375 -7.335938 5.828125 -7.140625 C 6.296875 -6.941406 6.695312 -6.664062 7.03125 -6.3125 C 7.363281 -5.957031 7.613281 -5.550781 7.78125 -5.09375 C 7.957031 -4.632812 8.046875 -4.148438 8.046875 -3.640625 C 8.046875 -3.140625 7.957031 -2.660156 7.78125 -2.203125 C 7.613281 -1.742188 7.363281 -1.335938 7.03125 -0.984375 C 6.707031 -0.628906 6.304688 -0.351562 5.828125 -0.15625 C 5.359375 0.0390625 4.828125 0.140625 4.234375 0.140625 Z M 2.3125 -3.640625 C 2.3125 -3.210938 2.394531 -2.832031 2.5625 -2.5 C 2.726562 -2.175781 2.957031 -1.921875 3.25 -1.734375 C 3.539062 -1.546875 3.867188 -1.453125 4.234375 -1.453125 C 4.585938 -1.453125 4.90625 -1.546875 5.1875 -1.734375 C 5.476562 -1.921875 5.707031 -2.179688 5.875 -2.515625 C 6.050781 -2.847656 6.140625 -3.226562 6.140625 -3.65625 C 6.140625 -4.070312 6.050781 -4.445312 5.875 -4.78125 C 5.707031 -5.113281 5.476562 -5.375 5.1875 -5.5625 C 4.90625 -5.75 4.585938 -5.84375 4.234375 -5.84375 C 3.867188 -5.84375 3.539062 -5.75 3.25 -5.5625 C 2.957031 -5.375 2.726562 -5.113281 2.5625 -4.78125 C 2.394531 -4.445312 2.3125 -4.066406 2.3125 -3.640625 Z M 2.3125 -3.640625 "/></g></g></g><g fill="#ffffff" fill-opacity="1"><g transform="translate(101.978698, 41.886179)"><g><path d="M 3.546875 0.140625 C 2.921875 0.140625 2.320312 0.0390625 1.75 -0.15625 C 1.1875 -0.363281 0.703125 -0.671875 0.296875 -1.078125 L 0.96875 -2.28125 C 1.40625 -1.9375 1.832031 -1.675781 2.25 -1.5 C 2.675781 -1.332031 3.082031 -1.25 3.46875 -1.25 C 3.832031 -1.25 4.125 -1.3125 4.34375 -1.4375 C 4.5625 -1.570312 4.671875 -1.769531 4.671875 -2.03125 C 4.671875 -2.207031 4.609375 -2.34375 4.484375 -2.4375 C 4.367188 -2.539062 4.195312 -2.628906 3.96875 -2.703125 C 3.738281 -2.773438 3.460938 -2.859375 3.140625 -2.953125 C 2.597656 -3.128906 2.144531 -3.300781 1.78125 -3.46875 C 1.414062 -3.632812 1.144531 -3.847656 0.96875 -4.109375 C 0.789062 -4.367188 0.703125 -4.695312 0.703125 -5.09375 C 0.703125 -5.570312 0.820312 -5.984375 1.0625 -6.328125 C 1.3125 -6.679688 1.65625 -6.957031 2.09375 -7.15625 C 2.539062 -7.351562 3.0625 -7.453125 3.65625 -7.453125 C 4.175781 -7.453125 4.664062 -7.367188 5.125 -7.203125 C 5.59375 -7.046875 6.019531 -6.785156 6.40625 -6.421875 L 5.65625 -5.234375 C 5.28125 -5.523438 4.925781 -5.734375 4.59375 -5.859375 C 4.257812 -5.992188 3.921875 -6.0625 3.578125 -6.0625 C 3.378906 -6.0625 3.191406 -6.039062 3.015625 -6 C 2.847656 -5.957031 2.707031 -5.878906 2.59375 -5.765625 C 2.488281 -5.660156 2.4375 -5.507812 2.4375 -5.3125 C 2.4375 -5.132812 2.484375 -5 2.578125 -4.90625 C 2.679688 -4.8125 2.832031 -4.722656 3.03125 -4.640625 C 3.226562 -4.566406 3.472656 -4.484375 3.765625 -4.390625 C 4.347656 -4.222656 4.84375 -4.050781 5.25 -3.875 C 5.65625 -3.695312 5.957031 -3.476562 6.15625 -3.21875 C 6.363281 -2.96875 6.46875 -2.617188 6.46875 -2.171875 C 6.46875 -1.453125 6.203125 -0.882812 5.671875 -0.46875 C 5.148438 -0.0625 4.441406 0.140625 3.546875 0.140625 Z M 3.546875 0.140625 "/></g></g></g><g fill="#ffffff" fill-opacity="1"><g transform="translate(108.868406, 41.886179)"><g><path d="M 0.34375 -2.15625 C 0.34375 -2.632812 0.472656 -3.050781 0.734375 -3.40625 C 1.003906 -3.769531 1.375 -4.046875 1.84375 -4.234375 C 2.320312 -4.429688 2.867188 -4.53125 3.484375 -4.53125 C 3.796875 -4.53125 4.109375 -4.503906 4.421875 -4.453125 C 4.734375 -4.410156 5.007812 -4.335938 5.25 -4.234375 L 5.25 -4.625 C 5.25 -5.09375 5.109375 -5.453125 4.828125 -5.703125 C 4.554688 -5.953125 4.148438 -6.078125 3.609375 -6.078125 C 3.210938 -6.078125 2.832031 -6.007812 2.46875 -5.875 C 2.101562 -5.738281 1.722656 -5.535156 1.328125 -5.265625 L 0.71875 -6.484375 C 1.207031 -6.804688 1.703125 -7.046875 2.203125 -7.203125 C 2.710938 -7.359375 3.25 -7.4375 3.8125 -7.4375 C 4.851562 -7.4375 5.660156 -7.175781 6.234375 -6.65625 C 6.816406 -6.132812 7.109375 -5.390625 7.109375 -4.421875 L 7.109375 -2.09375 C 7.109375 -1.894531 7.144531 -1.753906 7.21875 -1.671875 C 7.289062 -1.585938 7.40625 -1.535156 7.5625 -1.515625 L 7.5625 0 C 7.394531 0.03125 7.242188 0.0507812 7.109375 0.0625 C 6.972656 0.0820312 6.859375 0.09375 6.765625 0.09375 C 6.390625 0.09375 6.109375 0.0078125 5.921875 -0.15625 C 5.734375 -0.320312 5.613281 -0.523438 5.5625 -0.765625 L 5.53125 -1.140625 C 5.207031 -0.734375 4.804688 -0.414062 4.328125 -0.1875 C 3.859375 0.03125 3.378906 0.140625 2.890625 0.140625 C 2.398438 0.140625 1.960938 0.0390625 1.578125 -0.15625 C 1.191406 -0.351562 0.890625 -0.625 0.671875 -0.96875 C 0.453125 -1.320312 0.34375 -1.71875 0.34375 -2.15625 Z M 4.890625 -1.78125 C 4.992188 -1.894531 5.078125 -2.003906 5.140625 -2.109375 C 5.210938 -2.222656 5.25 -2.328125 5.25 -2.421875 L 5.25 -3.171875 C 5.019531 -3.265625 4.773438 -3.332031 4.515625 -3.375 C 4.253906 -3.425781 4.007812 -3.453125 3.78125 -3.453125 C 3.300781 -3.453125 2.90625 -3.347656 2.59375 -3.140625 C 2.28125 -2.929688 2.125 -2.65625 2.125 -2.3125 C 2.125 -2.125 2.171875 -1.945312 2.265625 -1.78125 C 2.367188 -1.613281 2.519531 -1.476562 2.71875 -1.375 C 2.914062 -1.28125 3.148438 -1.234375 3.421875 -1.234375 C 3.703125 -1.234375 3.972656 -1.285156 4.234375 -1.390625 C 4.503906 -1.492188 4.722656 -1.625 4.890625 -1.78125 Z M 4.890625 -1.78125 "/></g></g></g><g fill="#ffffff" fill-opacity="1"><g transform="translate(116.873856, 41.886179)"><g><path d="M 0.84375 0 L 0.84375 -7.3125 L 2.71875 -7.3125 L 2.71875 0 Z M 0.84375 -8.328125 L 0.84375 -10.1875 L 2.71875 -10.1875 L 2.71875 -8.328125 Z M 0.84375 -8.328125 "/></g></g></g><g fill="#ffffff" fill-opacity="1"><g transform="translate(120.430284, 41.886179)"><g><path d="M 4.25 0.140625 C 3.65625 0.140625 3.117188 0.0390625 2.640625 -0.15625 C 2.171875 -0.351562 1.769531 -0.628906 1.4375 -0.984375 C 1.101562 -1.347656 0.84375 -1.757812 0.65625 -2.21875 C 0.476562 -2.675781 0.390625 -3.15625 0.390625 -3.65625 C 0.390625 -4.34375 0.546875 -4.972656 0.859375 -5.546875 C 1.171875 -6.117188 1.613281 -6.578125 2.1875 -6.921875 C 2.769531 -7.265625 3.453125 -7.4375 4.234375 -7.4375 C 5.023438 -7.4375 5.703125 -7.265625 6.265625 -6.921875 C 6.835938 -6.578125 7.265625 -6.125 7.546875 -5.5625 L 5.71875 -5.015625 C 5.5625 -5.273438 5.351562 -5.476562 5.09375 -5.625 C 4.832031 -5.769531 4.546875 -5.84375 4.234375 -5.84375 C 3.878906 -5.84375 3.550781 -5.75 3.25 -5.5625 C 2.957031 -5.382812 2.726562 -5.128906 2.5625 -4.796875 C 2.394531 -4.472656 2.3125 -4.09375 2.3125 -3.65625 C 2.3125 -3.226562 2.394531 -2.847656 2.5625 -2.515625 C 2.738281 -2.179688 2.972656 -1.921875 3.265625 -1.734375 C 3.554688 -1.546875 3.878906 -1.453125 4.234375 -1.453125 C 4.453125 -1.453125 4.660156 -1.488281 4.859375 -1.5625 C 5.054688 -1.632812 5.234375 -1.734375 5.390625 -1.859375 C 5.554688 -1.992188 5.675781 -2.144531 5.75 -2.3125 L 7.578125 -1.765625 C 7.410156 -1.398438 7.164062 -1.070312 6.84375 -0.78125 C 6.519531 -0.488281 6.140625 -0.257812 5.703125 -0.09375 C 5.273438 0.0625 4.789062 0.140625 4.25 0.140625 Z M 4.25 0.140625 "/></g></g></g><g fill="#ffffff" fill-opacity="1"><g transform="translate(128.296271, 41.886179)"><g><path d="M 4.234375 0.140625 C 3.628906 0.140625 3.085938 0.0390625 2.609375 -0.15625 C 2.140625 -0.351562 1.738281 -0.628906 1.40625 -0.984375 C 1.082031 -1.335938 0.832031 -1.742188 0.65625 -2.203125 C 0.476562 -2.660156 0.390625 -3.140625 0.390625 -3.640625 C 0.390625 -4.148438 0.476562 -4.632812 0.65625 -5.09375 C 0.832031 -5.550781 1.082031 -5.957031 1.40625 -6.3125 C 1.738281 -6.664062 2.140625 -6.941406 2.609375 -7.140625 C 3.085938 -7.335938 3.628906 -7.4375 4.234375 -7.4375 C 4.828125 -7.4375 5.359375 -7.335938 5.828125 -7.140625 C 6.296875 -6.941406 6.695312 -6.664062 7.03125 -6.3125 C 7.363281 -5.957031 7.613281 -5.550781 7.78125 -5.09375 C 7.957031 -4.632812 8.046875 -4.148438 8.046875 -3.640625 C 8.046875 -3.140625 7.957031 -2.660156 7.78125 -2.203125 C 7.613281 -1.742188 7.363281 -1.335938 7.03125 -0.984375 C 6.707031 -0.628906 6.304688 -0.351562 5.828125 -0.15625 C 5.359375 0.0390625 4.828125 0.140625 4.234375 0.140625 Z M 2.3125 -3.640625 C 2.3125 -3.210938 2.394531 -2.832031 2.5625 -2.5 C 2.726562 -2.175781 2.957031 -1.921875 3.25 -1.734375 C 3.539062 -1.546875 3.867188 -1.453125 4.234375 -1.453125 C 4.585938 -1.453125 4.90625 -1.546875 5.1875 -1.734375 C 5.476562 -1.921875 5.707031 -2.179688 5.875 -2.515625 C 6.050781 -2.847656 6.140625 -3.226562 6.140625 -3.65625 C 6.140625 -4.070312 6.050781 -4.445312 5.875 -4.78125 C 5.707031 -5.113281 5.476562 -5.375 5.1875 -5.5625 C 4.90625 -5.75 4.585938 -5.84375 4.234375 -5.84375 C 3.867188 -5.84375 3.539062 -5.75 3.25 -5.5625 C 2.957031 -5.375 2.726562 -5.113281 2.5625 -4.78125 C 2.394531 -4.445312 2.3125 -4.066406 2.3125 -3.640625 Z M 2.3125 -3.640625 "/></g></g></g><path fill="#ffffff" d="M 51.960938 35.753906 C 52.09375 35.300781 52.207031 34.839844 52.3125 34.382812 L 53.542969 34.660156 C 53.433594 35.140625 53.3125 35.621094 53.175781 36.097656 L 51.960938 35.753906 " fill-opacity="1" fill-rule="nonzero"/><path fill="#ffffff" d="M 51.078125 34.105469 C 51.179688 33.667969 51.265625 33.226562 51.339844 32.785156 L 52.582031 32.992188 C 52.507812 33.457031 52.414062 33.921875 52.3125 34.382812 L 51.078125 34.105469 " fill-opacity="1" fill-rule="nonzero"/><path fill="#ffffff" d="M 50.09375 32.578125 C 50.164062 32.160156 50.21875 31.738281 50.269531 31.316406 L 51.523438 31.453125 C 51.472656 31.898438 51.414062 32.34375 51.339844 32.785156 L 50.09375 32.578125 " fill-opacity="1" fill-rule="nonzero"/><path fill="#ffffff" d="M 49.011719 31.175781 C 49.054688 30.777344 49.089844 30.378906 49.109375 29.976562 L 50.371094 30.046875 C 50.347656 30.46875 50.3125 30.894531 50.269531 31.316406 L 49.011719 31.175781 " fill-opacity="1" fill-rule="nonzero"/><path fill="#ffffff" d="M 50.75 35.40625 C 50.625 35.839844 50.488281 36.265625 50.34375 36.691406 L 51.535156 37.101562 C 51.691406 36.65625 51.832031 36.207031 51.960938 35.753906 L 50.75 35.40625 " fill-opacity="1" fill-rule="nonzero"/><path fill="#ffffff" d="M 49.148438 36.277344 C 49.011719 36.679688 48.863281 37.078125 48.699219 37.46875 L 49.867188 37.949219 C 50.039062 37.535156 50.195312 37.113281 50.34375 36.691406 L 49.148438 36.277344 " fill-opacity="1" fill-rule="nonzero"/><path fill="#ffffff" d="M 47.53125 36.988281 C 47.378906 37.359375 47.214844 37.726562 47.042969 38.089844 L 48.183594 38.632812 C 48.367188 38.25 48.539062 37.859375 48.699219 37.46875 L 47.53125 36.988281 " fill-opacity="1" fill-rule="nonzero"/><path fill="#ffffff" d="M 45.902344 37.546875 C 45.742188 37.886719 45.566406 38.222656 45.386719 38.554688 L 46.496094 39.160156 C 46.6875 38.808594 46.871094 38.453125 47.042969 38.089844 L 45.902344 37.546875 " fill-opacity="1" fill-rule="nonzero"/><path fill="#ffffff" d="M 43.460938 33.332031 C 43.542969 33.039062 43.621094 32.738281 43.6875 32.4375 L 42.457031 32.164062 C 42.394531 32.4375 42.324219 32.714844 42.246094 32.984375 L 43.460938 33.332031 " fill-opacity="1" fill-rule="nonzero"/><path fill="#ffffff" d="M 44.921875 32.714844 C 44.992188 32.394531 45.054688 32.070312 45.109375 31.746094 L 43.867188 31.535156 C 43.8125 31.839844 43.753906 32.140625 43.6875 32.4375 L 44.921875 32.714844 " fill-opacity="1" fill-rule="nonzero"/><path fill="#ffffff" d="M 46.355469 31.953125 C 46.414062 31.601562 46.464844 31.25 46.503906 30.898438 L 45.246094 30.761719 C 45.210938 31.089844 45.167969 31.417969 45.109375 31.746094 L 46.355469 31.953125 " fill-opacity="1" fill-rule="nonzero"/><path fill="#ffffff" d="M 47.757812 31.039062 C 47.800781 30.664062 47.832031 30.285156 47.851562 29.90625 L 46.589844 29.839844 C 46.570312 30.195312 46.542969 30.546875 46.503906 30.898438 L 47.757812 31.039062 " fill-opacity="1" fill-rule="nonzero"/><path fill="#ffffff" d="M 49.109375 29.976562 C 49.132812 29.578125 49.144531 29.175781 49.144531 28.773438 L 47.882812 28.773438 C 47.882812 29.152344 47.871094 29.53125 47.851562 29.90625 L 49.109375 29.976562 " fill-opacity="1" fill-rule="nonzero"/><path fill="#ffffff" d="M 44.675781 33.675781 C 44.585938 33.996094 44.484375 34.3125 44.378906 34.625 L 43.183594 34.210938 C 43.285156 33.917969 43.375 33.628906 43.460938 33.332031 L 44.675781 33.675781 " fill-opacity="1" fill-rule="nonzero"/><path fill="#ffffff" d="M 45.570312 35.035156 C 45.453125 35.371094 45.332031 35.703125 45.195312 36.03125 L 44.027344 35.550781 C 44.152344 35.246094 44.269531 34.933594 44.378906 34.625 L 45.570312 35.035156 " fill-opacity="1" fill-rule="nonzero"/><path fill="#ffffff" d="M 46.363281 36.507812 C 46.21875 36.859375 46.066406 37.203125 45.902344 37.546875 L 44.761719 37 C 44.914062 36.679688 45.058594 36.359375 45.195312 36.03125 L 46.363281 36.507812 " fill-opacity="1" fill-rule="nonzero"/><path fill="#ffffff" d="M 46.386719 34.703125 L 48.722656 35.433594 C 48.960938 34.671875 49.15625 33.894531 49.3125 33.113281 L 46.914062 32.636719 C 46.777344 33.332031 46.601562 34.023438 46.386719 34.703125 Z M 47.0625 36.460938 C 46.507812 35.304688 45.855469 34.242188 45.132812 33.28125 C 46.226562 32.785156 47.308594 32.164062 48.347656 31.417969 C 49.171875 32.398438 49.929688 33.488281 50.597656 34.675781 C 49.441406 35.402344 48.257812 35.996094 47.0625 36.460938 " fill-opacity="1" fill-rule="nonzero"/><path fill="#ffffff" d="M 46.574219 45.597656 C 46.886719 45.246094 47.1875 44.882812 47.480469 44.515625 L 48.46875 45.292969 C 48.164062 45.683594 47.847656 46.0625 47.519531 46.433594 L 46.574219 45.597656 " fill-opacity="1" fill-rule="nonzero"/><path fill="#ffffff" d="M 46.488281 43.730469 C 46.765625 43.382812 47.03125 43.019531 47.289062 42.652344 L 48.324219 43.382812 C 48.050781 43.765625 47.769531 44.144531 47.480469 44.515625 L 46.488281 43.730469 " fill-opacity="1" fill-rule="nonzero"/><path fill="#ffffff" d="M 46.257812 41.929688 C 46.5 41.582031 46.734375 41.226562 46.960938 40.867188 L 48.03125 41.535156 C 47.792969 41.914062 47.546875 42.289062 47.289062 42.652344 L 46.257812 41.929688 " fill-opacity="1" fill-rule="nonzero"/><path fill="#ffffff" d="M 45.886719 40.199219 C 46.097656 39.859375 46.300781 39.511719 46.496094 39.160156 L 47.601562 39.765625 C 47.398438 40.140625 47.183594 40.507812 46.960938 40.867188 L 45.886719 40.199219 " fill-opacity="1" fill-rule="nonzero"/><path fill="#ffffff" d="M 45.625 44.761719 C 45.332031 45.097656 45.027344 45.425781 44.710938 45.746094 L 45.609375 46.628906 C 45.941406 46.296875 46.261719 45.953125 46.574219 45.597656 L 45.625 44.761719 " fill-opacity="1" fill-rule="nonzero"/><path fill="#ffffff" d="M 43.8125 44.859375 C 43.511719 45.160156 43.207031 45.453125 42.894531 45.738281 L 43.742188 46.675781 C 44.074219 46.375 44.394531 46.0625 44.710938 45.746094 L 43.8125 44.859375 " fill-opacity="1" fill-rule="nonzero"/><path fill="#ffffff" d="M 42.042969 44.804688 C 41.746094 45.074219 41.441406 45.335938 41.132812 45.585938 L 41.925781 46.566406 C 42.257812 46.300781 42.578125 46.023438 42.894531 45.738281 L 42.042969 44.804688 " fill-opacity="1" fill-rule="nonzero"/><path fill="#ffffff" d="M 40.335938 44.605469 C 40.042969 44.84375 39.742188 45.074219 39.4375 45.292969 L 40.175781 46.320312 C 40.503906 46.085938 40.820312 45.839844 41.132812 45.585938 L 40.335938 44.605469 " fill-opacity="1" fill-rule="nonzero"/><path fill="#ffffff" d="M 39.945312 39.75 C 40.148438 39.515625 40.347656 39.28125 40.539062 39.039062 L 39.546875 38.257812 C 39.371094 38.480469 39.1875 38.699219 39 38.910156 L 39.945312 39.75 " fill-opacity="1" fill-rule="nonzero"/><path fill="#ffffff" d="M 41.53125 39.820312 C 41.734375 39.5625 41.933594 39.292969 42.125 39.023438 L 41.089844 38.296875 C 40.914062 38.550781 40.730469 38.796875 40.539062 39.039062 L 41.53125 39.820312 " fill-opacity="1" fill-rule="nonzero"/><path fill="#ffffff" d="M 43.15625 39.75 C 43.359375 39.460938 43.554688 39.164062 43.742188 38.863281 L 42.671875 38.195312 C 42.496094 38.476562 42.3125 38.753906 42.125 39.023438 L 43.15625 39.75 " fill-opacity="1" fill-rule="nonzero"/><path fill="#ffffff" d="M 44.816406 39.53125 C 45.015625 39.210938 45.207031 38.882812 45.386719 38.554688 L 44.28125 37.945312 C 44.109375 38.257812 43.929688 38.5625 43.742188 38.863281 L 44.816406 39.53125 " fill-opacity="1" fill-rule="nonzero"/><path fill="#ffffff" d="M 40.894531 40.582031 C 40.675781 40.832031 40.449219 41.074219 40.214844 41.308594 L 39.316406 40.421875 C 39.53125 40.203125 39.742188 39.980469 39.945312 39.75 L 40.894531 40.582031 " fill-opacity="1" fill-rule="nonzero"/><path fill="#ffffff" d="M 41.113281 42.195312 C 40.863281 42.449219 40.609375 42.695312 40.347656 42.933594 L 39.496094 42 C 39.742188 41.777344 39.980469 41.546875 40.214844 41.308594 L 41.113281 42.195312 " fill-opacity="1" fill-rule="nonzero"/><path fill="#ffffff" d="M 41.195312 43.867188 C 40.917969 44.121094 40.628906 44.367188 40.335938 44.605469 L 39.539062 43.625 C 39.8125 43.402344 40.082031 43.171875 40.347656 42.933594 L 41.195312 43.867188 " fill-opacity="1" fill-rule="nonzero"/><path fill="#ffffff" d="M 41.996094 42.246094 L 43.789062 43.910156 C 44.332031 43.328125 44.84375 42.714844 45.320312 42.074219 L 43.363281 40.609375 C 42.9375 41.179688 42.480469 41.726562 41.996094 42.246094 Z M 41.851562 44.125 C 41.84375 42.84375 41.714844 41.605469 41.476562 40.421875 C 42.679688 40.445312 43.921875 40.351562 45.183594 40.128906 C 45.503906 41.367188 45.714844 42.675781 45.804688 44.039062 C 44.453125 44.191406 43.125 44.21875 41.851562 44.125 " fill-opacity="1" fill-rule="nonzero"/><path fill="#ffffff" d="M 37.484375 52.167969 C 37.917969 51.984375 38.347656 51.785156 38.769531 51.578125 L 39.328125 52.710938 C 38.882812 52.929688 38.433594 53.136719 37.980469 53.332031 L 37.484375 52.167969 " fill-opacity="1" fill-rule="nonzero"/><path fill="#ffffff" d="M 38.210938 50.445312 C 38.609375 50.246094 39.007812 50.035156 39.394531 49.816406 L 40.019531 50.914062 C 39.609375 51.148438 39.191406 51.371094 38.769531 51.578125 L 38.210938 50.445312 " fill-opacity="1" fill-rule="nonzero"/><path fill="#ffffff" d="M 38.773438 48.714844 C 39.144531 48.507812 39.507812 48.289062 39.867188 48.058594 L 40.546875 49.121094 C 40.171875 49.363281 39.789062 49.59375 39.394531 49.816406 L 38.773438 48.714844 " fill-opacity="1" fill-rule="nonzero"/><path fill="#ffffff" d="M 39.183594 46.996094 C 39.519531 46.78125 39.851562 46.554688 40.175781 46.320312 L 40.917969 47.339844 C 40.574219 47.589844 40.222656 47.828125 39.867188 48.058594 L 39.183594 46.996094 " fill-opacity="1" fill-rule="nonzero"/><path fill="#ffffff" d="M 36.988281 51.007812 C 36.574219 51.183594 36.160156 51.347656 35.734375 51.503906 L 36.167969 52.6875 C 36.609375 52.527344 37.050781 52.355469 37.484375 52.167969 L 36.988281 51.007812 " fill-opacity="1" fill-rule="nonzero"/><path fill="#ffffff" d="M 35.304688 50.3125 C 34.90625 50.457031 34.503906 50.59375 34.097656 50.714844 L 34.460938 51.925781 C 34.890625 51.792969 35.3125 51.652344 35.734375 51.503906 L 35.304688 50.3125 " fill-opacity="1" fill-rule="nonzero"/><path fill="#ffffff" d="M 33.734375 49.503906 C 33.351562 49.621094 32.960938 49.726562 32.570312 49.820312 L 32.867188 51.046875 C 33.28125 50.945312 33.691406 50.835938 34.097656 50.714844 L 33.734375 49.503906 " fill-opacity="1" fill-rule="nonzero"/><path fill="#ffffff" d="M 32.277344 48.589844 C 31.910156 48.679688 31.539062 48.757812 31.167969 48.824219 L 31.394531 50.066406 C 31.789062 49.996094 32.183594 49.910156 32.570312 49.820312 L 32.277344 48.589844 " fill-opacity="1" fill-rule="nonzero"/><path fill="#ffffff" d="M 34.011719 44.039062 C 34.292969 43.917969 34.574219 43.792969 34.851562 43.65625 L 34.289062 42.523438 C 34.035156 42.648438 33.777344 42.765625 33.515625 42.878906 L 34.011719 44.039062 " fill-opacity="1" fill-rule="nonzero"/><path fill="#ffffff" d="M 35.410156 44.785156 C 35.707031 44.640625 36 44.484375 36.285156 44.320312 L 35.664062 43.222656 C 35.394531 43.375 35.125 43.519531 34.851562 43.65625 L 35.410156 44.785156 " fill-opacity="1" fill-rule="nonzero"/><path fill="#ffffff" d="M 36.910156 45.421875 C 37.21875 45.246094 37.519531 45.0625 37.816406 44.871094 L 37.136719 43.808594 C 36.855469 43.988281 36.574219 44.160156 36.285156 44.320312 L 36.910156 45.421875 " fill-opacity="1" fill-rule="nonzero"/><path fill="#ffffff" d="M 38.5 45.933594 C 38.816406 45.730469 39.132812 45.515625 39.4375 45.292969 L 38.695312 44.273438 C 38.410156 44.480469 38.117188 44.679688 37.816406 44.871094 L 38.5 45.933594 " fill-opacity="1" fill-rule="nonzero"/><path fill="#ffffff" d="M 34.507812 45.203125 C 34.203125 45.332031 33.898438 45.453125 33.585938 45.5625 L 33.15625 44.378906 C 33.445312 44.273438 33.730469 44.160156 34.011719 44.039062 L 34.507812 45.203125 " fill-opacity="1" fill-rule="nonzero"/><path fill="#ffffff" d="M 34.015625 46.753906 C 33.683594 46.875 33.347656 46.984375 33.007812 47.085938 L 32.644531 45.875 C 32.960938 45.78125 33.277344 45.675781 33.585938 45.5625 L 34.015625 46.753906 " fill-opacity="1" fill-rule="nonzero"/><path fill="#ffffff" d="M 33.371094 48.296875 C 33.007812 48.402344 32.644531 48.503906 32.277344 48.589844 L 31.984375 47.363281 C 32.328125 47.277344 32.667969 47.1875 33.007812 47.085938 L 33.371094 48.296875 " fill-opacity="1" fill-rule="nonzero"/><path fill="#ffffff" d="M 34.792969 47.175781 L 35.691406 49.449219 C 36.433594 49.15625 37.160156 48.820312 37.867188 48.449219 L 36.726562 46.285156 C 36.097656 46.617188 35.449219 46.914062 34.792969 47.175781 Z M 33.851562 48.808594 C 34.394531 47.648438 34.8125 46.476562 35.101562 45.304688 C 36.179688 45.847656 37.34375 46.292969 38.578125 46.632812 C 38.335938 47.890625 37.964844 49.164062 37.460938 50.429688 C 36.171875 49.988281 34.964844 49.441406 33.851562 48.808594 " fill-opacity="1" fill-rule="nonzero"/><g clip-path="url(#a0c0652d91)"><path fill="#ffffff" d="M 26.449219 54.179688 C 26.917969 54.199219 27.386719 54.207031 27.855469 54.199219 L 27.875 55.464844 C 27.378906 55.472656 26.886719 55.464844 26.394531 55.441406 L 26.449219 54.179688 " fill-opacity="1" fill-rule="nonzero"/></g><path fill="#ffffff" d="M 27.839844 52.9375 C 28.285156 52.929688 28.734375 52.914062 29.179688 52.882812 L 29.265625 54.144531 C 28.796875 54.175781 28.328125 54.195312 27.855469 54.199219 L 27.839844 52.9375 " fill-opacity="1" fill-rule="nonzero"/><path fill="#ffffff" d="M 29.09375 51.621094 C 29.515625 51.59375 29.9375 51.554688 30.359375 51.5 L 30.515625 52.753906 C 30.070312 52.808594 29.625 52.851562 29.179688 52.882812 L 29.09375 51.621094 " fill-opacity="1" fill-rule="nonzero"/><path fill="#ffffff" d="M 30.203125 50.246094 C 30.601562 50.199219 31 50.136719 31.394531 50.066406 L 31.621094 51.308594 C 31.203125 51.382812 30.78125 51.449219 30.359375 51.5 L 30.203125 50.246094 " fill-opacity="1" fill-rule="nonzero"/><path fill="#ffffff" d="M 26.5 52.917969 C 26.054688 52.902344 25.605469 52.871094 25.160156 52.828125 L 25.039062 54.085938 C 25.507812 54.128906 25.976562 54.160156 26.449219 54.179688 L 26.5 52.917969 " fill-opacity="1" fill-rule="nonzero"/><path fill="#ffffff" d="M 25.28125 51.570312 C 24.859375 51.527344 24.4375 51.476562 24.019531 51.414062 L 23.828125 52.664062 C 24.269531 52.730469 24.714844 52.785156 25.160156 52.828125 L 25.28125 51.570312 " fill-opacity="1" fill-rule="nonzero"/><path fill="#ffffff" d="M 24.210938 50.164062 C 23.8125 50.105469 23.417969 50.03125 23.023438 49.949219 L 22.765625 51.183594 C 23.179688 51.273438 23.597656 51.347656 24.019531 51.414062 L 24.210938 50.164062 " fill-opacity="1" fill-rule="nonzero"/><path fill="#ffffff" d="M 23.285156 48.714844 C 22.914062 48.636719 22.546875 48.546875 22.183594 48.449219 L 21.855469 49.667969 C 22.242188 49.773438 22.632812 49.867188 23.023438 49.949219 L 23.285156 48.714844 " fill-opacity="1" fill-rule="nonzero"/><path fill="#ffffff" d="M 26.8125 45.347656 C 27.117188 45.359375 27.429688 45.367188 27.738281 45.363281 L 27.71875 44.101562 C 27.433594 44.105469 27.148438 44.097656 26.863281 44.085938 L 26.8125 45.347656 " fill-opacity="1" fill-rule="nonzero"/><path fill="#ffffff" d="M 27.753906 46.625 C 28.085938 46.621094 28.417969 46.605469 28.746094 46.582031 L 28.660156 45.324219 C 28.355469 45.34375 28.046875 45.355469 27.738281 45.363281 L 27.753906 46.625 " fill-opacity="1" fill-rule="nonzero"/><path fill="#ffffff" d="M 28.835938 47.84375 C 29.1875 47.820312 29.542969 47.785156 29.894531 47.742188 L 29.738281 46.488281 C 29.410156 46.53125 29.078125 46.558594 28.746094 46.582031 L 28.835938 47.84375 " fill-opacity="1" fill-rule="nonzero"/><path fill="#ffffff" d="M 30.046875 48.996094 C 30.421875 48.949219 30.796875 48.890625 31.167969 48.824219 L 30.941406 47.582031 C 30.59375 47.644531 30.246094 47.699219 29.894531 47.742188 L 30.046875 48.996094 " fill-opacity="1" fill-rule="nonzero"/><path fill="#ffffff" d="M 26.757812 46.609375 C 26.425781 46.597656 26.097656 46.574219 25.765625 46.542969 L 25.886719 45.285156 C 26.195312 45.316406 26.503906 45.335938 26.8125 45.347656 L 26.757812 46.609375 " fill-opacity="1" fill-rule="nonzero"/><path fill="#ffffff" d="M 25.644531 47.800781 C 25.292969 47.765625 24.941406 47.722656 24.589844 47.667969 L 24.78125 46.417969 C 25.109375 46.46875 25.4375 46.511719 25.765625 46.542969 L 25.644531 47.800781 " fill-opacity="1" fill-rule="nonzero"/><path fill="#ffffff" d="M 24.398438 48.917969 C 24.027344 48.859375 23.65625 48.792969 23.285156 48.714844 L 23.542969 47.476562 C 23.890625 47.550781 24.238281 47.613281 24.589844 47.667969 L 24.398438 48.917969 " fill-opacity="1" fill-rule="nonzero"/><path fill="#ffffff" d="M 26.164062 48.515625 L 26 50.957031 C 26.796875 51.007812 27.59375 51.023438 28.390625 50.988281 L 28.296875 48.542969 C 27.585938 48.574219 26.875 48.5625 26.164062 48.515625 Z M 24.613281 49.585938 C 25.601562 48.773438 26.484375 47.890625 27.25 46.960938 C 27.992188 47.910156 28.851562 48.816406 29.816406 49.65625 C 29.054688 50.6875 28.171875 51.675781 27.171875 52.601562 C 26.203125 51.648438 25.347656 50.636719 24.613281 49.585938 " fill-opacity="1" fill-rule="nonzero"/><path fill="#ffffff" d="M 15.609375 51.257812 C 16.027344 51.476562 16.449219 51.6875 16.878906 51.882812 L 16.351562 53.03125 C 15.902344 52.820312 15.457031 52.605469 15.019531 52.371094 L 15.609375 51.257812 " fill-opacity="1" fill-rule="nonzero"/><path fill="#ffffff" d="M 17.40625 50.734375 C 17.816406 50.921875 18.226562 51.097656 18.644531 51.265625 L 18.179688 52.4375 C 17.742188 52.265625 17.308594 52.082031 16.878906 51.882812 L 17.40625 50.734375 " fill-opacity="1" fill-rule="nonzero"/><path fill="#ffffff" d="M 19.105469 50.089844 C 19.5 50.246094 19.902344 50.386719 20.304688 50.523438 L 19.90625 51.722656 C 19.484375 51.582031 19.0625 51.429688 18.644531 51.265625 L 19.105469 50.089844 " fill-opacity="1" fill-rule="nonzero"/><path fill="#ffffff" d="M 20.699219 49.324219 C 21.082031 49.449219 21.46875 49.566406 21.855469 49.667969 L 21.527344 50.890625 C 21.117188 50.777344 20.707031 50.65625 20.304688 50.523438 L 20.699219 49.324219 " fill-opacity="1" fill-rule="nonzero"/><path fill="#ffffff" d="M 16.203125 50.140625 C 15.808594 49.929688 15.414062 49.707031 15.03125 49.476562 L 14.378906 50.558594 C 14.785156 50.800781 15.195312 51.035156 15.609375 51.253906 L 16.203125 50.140625 " fill-opacity="1" fill-rule="nonzero"/><path fill="#ffffff" d="M 15.683594 48.394531 C 15.320312 48.179688 14.964844 47.949219 14.613281 47.707031 L 13.902344 48.75 C 14.273438 49.003906 14.648438 49.246094 15.03125 49.476562 L 15.683594 48.394531 " fill-opacity="1" fill-rule="nonzero"/><path fill="#ffffff" d="M 15.324219 46.664062 C 14.992188 46.441406 14.667969 46.203125 14.347656 45.960938 L 13.582031 46.960938 C 13.917969 47.222656 14.261719 47.46875 14.613281 47.707031 L 15.324219 46.664062 " fill-opacity="1" fill-rule="nonzero"/><path fill="#ffffff" d="M 15.117188 44.957031 C 14.820312 44.726562 14.523438 44.492188 14.238281 44.246094 L 13.417969 45.203125 C 13.722656 45.464844 14.03125 45.714844 14.347656 45.960938 L 15.117188 44.957031 " fill-opacity="1" fill-rule="nonzero"/><path fill="#ffffff" d="M 19.75 43.445312 C 20.019531 43.589844 20.296875 43.726562 20.574219 43.851562 L 21.101562 42.707031 C 20.847656 42.585938 20.589844 42.460938 20.339844 42.328125 L 19.75 43.445312 " fill-opacity="1" fill-rule="nonzero"/><path fill="#ffffff" d="M 20.046875 45 C 20.347656 45.136719 20.652344 45.269531 20.960938 45.390625 L 21.421875 44.214844 C 21.136719 44.101562 20.855469 43.980469 20.574219 43.851562 L 20.046875 45 " fill-opacity="1" fill-rule="nonzero"/><path fill="#ffffff" d="M 20.496094 46.566406 C 20.824219 46.695312 21.160156 46.816406 21.496094 46.925781 L 21.890625 45.726562 C 21.578125 45.621094 21.265625 45.511719 20.960938 45.390625 L 20.496094 46.566406 " fill-opacity="1" fill-rule="nonzero"/><path fill="#ffffff" d="M 21.097656 48.125 C 21.457031 48.242188 21.820312 48.351562 22.183594 48.449219 L 22.511719 47.230469 C 22.167969 47.140625 21.832031 47.035156 21.496094 46.925781 L 21.097656 48.125 " fill-opacity="1" fill-rule="nonzero"/><path fill="#ffffff" d="M 19.15625 44.558594 C 18.867188 44.40625 18.578125 44.242188 18.292969 44.070312 L 18.945312 42.988281 C 19.210938 43.148438 19.476562 43.300781 19.75 43.445312 L 19.15625 44.558594 " fill-opacity="1" fill-rule="nonzero"/><path fill="#ffffff" d="M 17.640625 45.152344 C 17.335938 44.96875 17.039062 44.777344 16.746094 44.578125 L 17.460938 43.535156 C 17.734375 43.722656 18.011719 43.902344 18.292969 44.070312 L 17.640625 45.152344 " fill-opacity="1" fill-rule="nonzero"/><path fill="#ffffff" d="M 16.035156 45.621094 C 15.722656 45.410156 15.417969 45.1875 15.117188 44.957031 L 15.886719 43.957031 C 16.167969 44.171875 16.453125 44.378906 16.746094 44.578125 L 16.035156 45.621094 " fill-opacity="1" fill-rule="nonzero"/><path fill="#ffffff" d="M 17.800781 46.023438 L 16.597656 48.152344 C 17.292969 48.546875 18.011719 48.898438 18.746094 49.214844 L 19.710938 46.964844 C 19.058594 46.6875 18.417969 46.371094 17.800781 46.023438 Z M 15.9375 46.316406 C 17.183594 46.011719 18.359375 45.597656 19.449219 45.085938 C 19.707031 46.265625 20.09375 47.449219 20.605469 48.625 C 19.476562 49.226562 18.25 49.738281 16.949219 50.144531 C 16.480469 48.863281 16.144531 47.582031 15.9375 46.316406 " fill-opacity="1" fill-rule="nonzero"/><path fill="#ffffff" d="M 7.101562 43.953125 C 7.382812 44.332031 7.671875 44.703125 7.976562 45.0625 L 7.007812 45.871094 C 6.691406 45.492188 6.382812 45.105469 6.085938 44.710938 L 7.101562 43.953125 " fill-opacity="1" fill-rule="nonzero"/><path fill="#ffffff" d="M 8.945312 44.253906 C 9.230469 44.597656 9.527344 44.933594 9.832031 45.261719 L 8.910156 46.125 C 8.589844 45.78125 8.277344 45.425781 7.976562 45.0625 L 8.945312 44.253906 " fill-opacity="1" fill-rule="nonzero"/><path fill="#ffffff" d="M 10.757812 44.398438 C 11.046875 44.710938 11.34375 45.011719 11.652344 45.304688 L 10.777344 46.214844 C 10.453125 45.90625 10.140625 45.589844 9.832031 45.261719 L 10.757812 44.398438 " fill-opacity="1" fill-rule="nonzero"/><path fill="#ffffff" d="M 12.523438 44.394531 C 12.8125 44.671875 13.113281 44.941406 13.417969 45.203125 L 12.59375 46.160156 C 12.269531 45.886719 11.957031 45.597656 11.652344 45.304688 L 12.523438 44.394531 " fill-opacity="1" fill-rule="nonzero"/><path fill="#ffffff" d="M 8.113281 43.199219 C 7.84375 42.84375 7.589844 42.476562 7.339844 42.101562 L 6.289062 42.800781 C 6.546875 43.191406 6.820312 43.578125 7.101562 43.953125 L 8.113281 43.199219 " fill-opacity="1" fill-rule="nonzero"/><path fill="#ffffff" d="M 8.394531 41.40625 C 8.160156 41.050781 7.933594 40.691406 7.71875 40.324219 L 6.628906 40.960938 C 6.855469 41.347656 7.09375 41.726562 7.339844 42.101562 L 8.394531 41.40625 " fill-opacity="1" fill-rule="nonzero"/><path fill="#ffffff" d="M 8.808594 39.6875 C 8.609375 39.339844 8.414062 38.988281 8.230469 38.628906 L 7.109375 39.207031 C 7.300781 39.585938 7.503906 39.957031 7.71875 40.324219 L 8.808594 39.6875 " fill-opacity="1" fill-rule="nonzero"/><path fill="#ffffff" d="M 9.355469 38.054688 C 9.183594 37.71875 9.019531 37.378906 8.867188 37.03125 L 7.714844 37.542969 C 7.875 37.910156 8.046875 38.273438 8.230469 38.628906 L 9.355469 38.054688 " fill-opacity="1" fill-rule="nonzero"/><path fill="#ffffff" d="M 14.1875 38.671875 C 14.371094 38.921875 14.5625 39.160156 14.761719 39.398438 L 15.730469 38.589844 C 15.546875 38.371094 15.371094 38.148438 15.203125 37.917969 L 14.1875 38.671875 " fill-opacity="1" fill-rule="nonzero"/><path fill="#ffffff" d="M 13.792969 40.207031 C 14.003906 40.460938 14.222656 40.710938 14.449219 40.953125 L 15.371094 40.089844 C 15.160156 39.867188 14.957031 39.632812 14.761719 39.398438 L 13.792969 40.207031 " fill-opacity="1" fill-rule="nonzero"/><path fill="#ffffff" d="M 13.527344 41.816406 C 13.769531 42.074219 14.015625 42.324219 14.273438 42.570312 L 15.148438 41.660156 C 14.90625 41.429688 14.675781 41.195312 14.449219 40.953125 L 13.527344 41.816406 " fill-opacity="1" fill-rule="nonzero"/><path fill="#ffffff" d="M 13.398438 43.484375 C 13.671875 43.746094 13.949219 44 14.238281 44.246094 L 15.058594 43.285156 C 14.792969 43.054688 14.527344 42.816406 14.273438 42.570312 L 13.398438 43.484375 " fill-opacity="1" fill-rule="nonzero"/><path fill="#ffffff" d="M 13.175781 39.429688 C 12.980469 39.160156 12.789062 38.890625 12.605469 38.613281 L 13.65625 37.917969 C 13.828125 38.175781 14.003906 38.425781 14.1875 38.671875 L 13.175781 39.429688 " fill-opacity="1" fill-rule="nonzero"/><path fill="#ffffff" d="M 11.550781 39.3125 C 11.355469 39.015625 11.167969 38.714844 10.988281 38.410156 L 12.082031 37.773438 C 12.246094 38.058594 12.421875 38.339844 12.605469 38.613281 L 11.550781 39.3125 " fill-opacity="1" fill-rule="nonzero"/><path fill="#ffffff" d="M 9.898438 39.046875 C 9.710938 38.722656 9.527344 38.390625 9.355469 38.054688 L 10.480469 37.476562 C 10.640625 37.792969 10.8125 38.105469 10.988281 38.410156 L 9.898438 39.046875 " fill-opacity="1" fill-rule="nonzero"/><path fill="#ffffff" d="M 11.324219 40.167969 L 9.324219 41.578125 C 9.78125 42.230469 10.28125 42.855469 10.804688 43.457031 L 12.640625 41.839844 C 12.171875 41.304688 11.730469 40.746094 11.324219 40.167969 Z M 9.515625 39.636719 C 10.769531 39.894531 12.007812 40.019531 13.214844 40.03125 C 12.941406 41.203125 12.78125 42.441406 12.738281 43.722656 C 11.457031 43.777344 10.136719 43.714844 8.785156 43.523438 C 8.914062 42.167969 9.160156 40.867188 9.515625 39.636719 " fill-opacity="1" fill-rule="nonzero"/><path fill="#ffffff" d="M 2.550781 33.691406 C 2.640625 34.15625 2.742188 34.617188 2.859375 35.070312 L 1.636719 35.382812 C 1.515625 34.902344 1.40625 34.421875 1.3125 33.933594 L 2.550781 33.691406 " fill-opacity="1" fill-rule="nonzero"/><path fill="#ffffff" d="M 4.085938 34.761719 C 4.195312 35.195312 4.316406 35.625 4.453125 36.054688 L 3.25 36.433594 C 3.105469 35.984375 2.976562 35.527344 2.859375 35.070312 L 4.085938 34.761719 " fill-opacity="1" fill-rule="nonzero"/><path fill="#ffffff" d="M 5.65625 35.675781 C 5.785156 36.078125 5.925781 36.480469 6.074219 36.878906 L 4.894531 37.324219 C 4.734375 36.90625 4.589844 36.480469 4.453125 36.054688 L 5.65625 35.675781 " fill-opacity="1" fill-rule="nonzero"/><path fill="#ffffff" d="M 7.253906 36.429688 C 7.398438 36.808594 7.550781 37.175781 7.714844 37.542969 L 6.558594 38.054688 C 6.386719 37.667969 6.222656 37.273438 6.074219 36.878906 L 7.253906 36.429688 " fill-opacity="1" fill-rule="nonzero"/><path fill="#ffffff" d="M 3.789062 33.449219 C 3.703125 33.007812 3.628906 32.566406 3.566406 32.121094 L 2.316406 32.296875 C 2.378906 32.761719 2.457031 33.226562 2.550781 33.691406 L 3.789062 33.449219 " fill-opacity="1" fill-rule="nonzero"/><path fill="#ffffff" d="M 4.816406 31.949219 C 4.761719 31.527344 4.714844 31.105469 4.679688 30.683594 L 3.417969 30.789062 C 3.457031 31.234375 3.503906 31.679688 3.566406 32.121094 L 4.816406 31.949219 " fill-opacity="1" fill-rule="nonzero"/><path fill="#ffffff" d="M 5.9375 30.582031 C 5.902344 30.179688 5.882812 29.777344 5.871094 29.378906 L 4.609375 29.414062 C 4.621094 29.835938 4.644531 30.261719 4.679688 30.683594 L 5.9375 30.582031 " fill-opacity="1" fill-rule="nonzero"/><path fill="#ffffff" d="M 7.132812 29.34375 C 7.121094 28.964844 7.121094 28.589844 7.132812 28.210938 L 5.871094 28.175781 C 5.859375 28.578125 5.859375 28.976562 5.871094 29.378906 L 7.132812 29.34375 " fill-opacity="1" fill-rule="nonzero"/><path fill="#ffffff" d="M 11.226562 31.992188 C 11.285156 32.292969 11.351562 32.59375 11.425781 32.886719 L 12.648438 32.578125 C 12.578125 32.300781 12.519531 32.027344 12.464844 31.746094 L 11.226562 31.992188 " fill-opacity="1" fill-rule="nonzero"/><path fill="#ffffff" d="M 10.203125 33.199219 C 10.285156 33.523438 10.375 33.839844 10.472656 34.152344 L 11.679688 33.773438 C 11.585938 33.480469 11.503906 33.1875 11.425781 32.886719 L 10.203125 33.199219 " fill-opacity="1" fill-rule="nonzero"/><path fill="#ffffff" d="M 9.269531 34.535156 C 9.375 34.871094 9.492188 35.207031 9.617188 35.539062 L 10.800781 35.089844 C 10.683594 34.78125 10.574219 34.46875 10.472656 34.152344 L 9.269531 34.535156 " fill-opacity="1" fill-rule="nonzero"/><path fill="#ffffff" d="M 8.4375 35.984375 C 8.570312 36.335938 8.714844 36.6875 8.867188 37.03125 L 10.023438 36.519531 C 9.878906 36.195312 9.742188 35.867188 9.617188 35.539062 L 8.4375 35.984375 " fill-opacity="1" fill-rule="nonzero"/><path fill="#ffffff" d="M 9.984375 32.234375 C 9.921875 31.910156 9.867188 31.582031 9.820312 31.253906 L 11.074219 31.082031 C 11.113281 31.386719 11.164062 31.6875 11.226562 31.992188 L 9.984375 32.234375 " fill-opacity="1" fill-rule="nonzero"/><path fill="#ffffff" d="M 8.570312 31.429688 C 8.523438 31.078125 8.484375 30.726562 8.453125 30.371094 L 9.710938 30.269531 C 9.738281 30.597656 9.777344 30.925781 9.820312 31.253906 L 8.570312 31.429688 " fill-opacity="1" fill-rule="nonzero"/><path fill="#ffffff" d="M 7.195312 30.476562 C 7.164062 30.101562 7.144531 29.722656 7.132812 29.34375 L 8.394531 29.308594 C 8.40625 29.664062 8.425781 30.019531 8.453125 30.371094 L 7.195312 30.476562 " fill-opacity="1" fill-rule="nonzero"/><path fill="#ffffff" d="M 7.996094 32.097656 L 5.582031 32.507812 C 5.714844 33.292969 5.890625 34.074219 6.109375 34.84375 L 8.460938 34.175781 C 8.269531 33.492188 8.113281 32.800781 7.996094 32.097656 Z M 6.59375 30.839844 C 7.613281 31.613281 8.675781 32.265625 9.757812 32.792969 C 9.007812 33.734375 8.328125 34.777344 7.738281 35.917969 C 6.558594 35.417969 5.390625 34.789062 4.257812 34.03125 C 4.957031 32.863281 5.742188 31.792969 6.59375 30.839844 " fill-opacity="1" fill-rule="nonzero"/><path fill="#ffffff" d="M 2.859375 22.484375 C 2.742188 22.941406 2.640625 23.402344 2.546875 23.863281 L 1.308594 23.621094 C 1.40625 23.136719 1.515625 22.652344 1.636719 22.171875 L 2.859375 22.484375 " fill-opacity="1" fill-rule="nonzero"/><path fill="#ffffff" d="M 3.789062 24.105469 C 3.703125 24.546875 3.628906 24.988281 3.566406 25.433594 L 2.316406 25.261719 C 2.378906 24.792969 2.457031 24.328125 2.546875 23.863281 L 3.789062 24.105469 " fill-opacity="1" fill-rule="nonzero"/><path fill="#ffffff" d="M 4.816406 25.605469 C 4.757812 26.027344 4.714844 26.449219 4.679688 26.871094 L 3.417969 26.769531 C 3.457031 26.320312 3.503906 25.878906 3.566406 25.433594 L 4.816406 25.605469 " fill-opacity="1" fill-rule="nonzero"/><path fill="#ffffff" d="M 5.9375 26.976562 C 5.902344 27.375 5.882812 27.777344 5.871094 28.175781 L 4.609375 28.140625 C 4.621094 27.71875 4.644531 27.292969 4.679688 26.871094 L 5.9375 26.976562 " fill-opacity="1" fill-rule="nonzero"/><path fill="#ffffff" d="M 4.082031 22.796875 C 4.195312 22.359375 4.316406 21.929688 4.453125 21.5 L 3.246094 21.121094 C 3.105469 21.570312 2.976562 22.027344 2.859375 22.484375 L 4.082031 22.796875 " fill-opacity="1" fill-rule="nonzero"/><path fill="#ffffff" d="M 5.65625 21.882812 C 5.785156 21.476562 5.921875 21.074219 6.074219 20.675781 L 4.890625 20.230469 C 4.734375 20.648438 4.585938 21.074219 4.453125 21.5 L 5.65625 21.882812 " fill-opacity="1" fill-rule="nonzero"/><path fill="#ffffff" d="M 7.253906 21.125 C 7.394531 20.75 7.550781 20.375 7.710938 20.007812 L 6.558594 19.496094 C 6.386719 19.886719 6.222656 20.277344 6.074219 20.675781 L 7.253906 21.125 " fill-opacity="1" fill-rule="nonzero"/><path fill="#ffffff" d="M 8.867188 20.523438 C 9.019531 20.175781 9.183594 19.835938 9.355469 19.5 L 8.230469 18.925781 C 8.046875 19.28125 7.875 19.640625 7.710938 20.007812 L 8.867188 20.523438 " fill-opacity="1" fill-rule="nonzero"/><path fill="#ffffff" d="M 11.425781 24.664062 C 11.351562 24.964844 11.28125 25.261719 11.222656 25.5625 L 12.464844 25.804688 C 12.519531 25.527344 12.578125 25.25 12.648438 24.976562 L 11.425781 24.664062 " fill-opacity="1" fill-rule="nonzero"/><path fill="#ffffff" d="M 9.984375 25.320312 C 9.921875 25.644531 9.867188 25.972656 9.820312 26.300781 L 11.070312 26.472656 C 11.113281 26.167969 11.164062 25.863281 11.222656 25.5625 L 9.984375 25.320312 " fill-opacity="1" fill-rule="nonzero"/><path fill="#ffffff" d="M 8.570312 26.125 C 8.519531 26.476562 8.484375 26.828125 8.453125 27.183594 L 9.710938 27.285156 C 9.738281 26.957031 9.777344 26.625 9.820312 26.300781 L 8.570312 26.125 " fill-opacity="1" fill-rule="nonzero"/><path fill="#ffffff" d="M 7.195312 27.078125 C 7.164062 27.457031 7.144531 27.832031 7.132812 28.210938 L 8.394531 28.246094 C 8.40625 27.890625 8.425781 27.535156 8.453125 27.183594 L 7.195312 27.078125 " fill-opacity="1" fill-rule="nonzero"/><path fill="#ffffff" d="M 10.203125 24.355469 C 10.28125 24.035156 10.375 23.714844 10.472656 23.398438 L 11.679688 23.78125 C 11.585938 24.074219 11.5 24.367188 11.425781 24.664062 L 10.203125 24.355469 " fill-opacity="1" fill-rule="nonzero"/><path fill="#ffffff" d="M 9.269531 23.019531 C 9.375 22.683594 9.492188 22.347656 9.617188 22.015625 L 10.796875 22.464844 C 10.679688 22.773438 10.574219 23.085938 10.472656 23.398438 L 9.269531 23.019531 " fill-opacity="1" fill-rule="nonzero"/><path fill="#ffffff" d="M 8.4375 21.570312 C 8.570312 21.214844 8.714844 20.867188 8.867188 20.523438 L 10.019531 21.035156 C 9.878906 21.359375 9.742188 21.683594 9.617188 22.015625 L 8.4375 21.570312 " fill-opacity="1" fill-rule="nonzero"/><path fill="#ffffff" d="M 8.460938 23.378906 L 6.109375 22.710938 C 5.890625 23.480469 5.714844 24.261719 5.582031 25.046875 L 7.996094 25.457031 C 8.113281 24.757812 8.269531 24.0625 8.460938 23.378906 Z M 7.738281 21.640625 C 8.324219 22.777344 9.003906 23.820312 9.757812 24.761719 C 8.675781 25.289062 7.613281 25.941406 6.59375 26.71875 C 5.742188 25.761719 4.957031 24.691406 4.253906 23.523438 C 5.390625 22.765625 6.558594 22.136719 7.738281 21.640625 " fill-opacity="1" fill-rule="nonzero"/><path fill="#ffffff" d="M 7.972656 12.492188 C 7.671875 12.851562 7.378906 13.222656 7.097656 13.601562 L 6.085938 12.84375 C 6.378906 12.449219 6.6875 12.0625 7.003906 11.683594 L 7.972656 12.492188 " fill-opacity="1" fill-rule="nonzero"/><path fill="#ffffff" d="M 8.109375 14.355469 C 7.84375 14.714844 7.585938 15.078125 7.339844 15.453125 L 6.285156 14.757812 C 6.546875 14.363281 6.816406 13.976562 7.097656 13.601562 L 8.109375 14.355469 " fill-opacity="1" fill-rule="nonzero"/><path fill="#ffffff" d="M 8.390625 16.152344 C 8.15625 16.503906 7.933594 16.863281 7.71875 17.230469 L 6.628906 16.59375 C 6.855469 16.207031 7.089844 15.828125 7.339844 15.453125 L 8.390625 16.152344 " fill-opacity="1" fill-rule="nonzero"/><path fill="#ffffff" d="M 8.808594 17.871094 C 8.605469 18.214844 8.414062 18.566406 8.230469 18.925781 L 7.105469 18.347656 C 7.300781 17.972656 7.503906 17.597656 7.71875 17.230469 L 8.808594 17.871094 " fill-opacity="1" fill-rule="nonzero"/><path fill="#ffffff" d="M 8.941406 13.300781 C 9.230469 12.957031 9.527344 12.621094 9.832031 12.292969 L 8.910156 11.429688 C 8.585938 11.777344 8.277344 12.128906 7.972656 12.492188 L 8.941406 13.300781 " fill-opacity="1" fill-rule="nonzero"/><path fill="#ffffff" d="M 10.753906 13.15625 C 11.042969 12.84375 11.34375 12.542969 11.648438 12.25 L 10.773438 11.339844 C 10.449219 11.648438 10.136719 11.964844 9.832031 12.292969 L 10.753906 13.15625 " fill-opacity="1" fill-rule="nonzero"/><path fill="#ffffff" d="M 12.523438 13.160156 C 12.8125 12.882812 13.109375 12.613281 13.414062 12.351562 L 12.59375 11.394531 C 12.269531 11.671875 11.953125 11.953125 11.648438 12.25 L 12.523438 13.160156 " fill-opacity="1" fill-rule="nonzero"/><path fill="#ffffff" d="M 14.234375 13.308594 C 14.523438 13.0625 14.816406 12.828125 15.113281 12.597656 L 14.347656 11.59375 C 14.03125 11.839844 13.71875 12.089844 13.414062 12.351562 L 14.234375 13.308594 " fill-opacity="1" fill-rule="nonzero"/><path fill="#ffffff" d="M 14.757812 18.15625 C 14.5625 18.390625 14.371094 18.632812 14.1875 18.878906 L 15.199219 19.636719 C 15.371094 19.40625 15.546875 19.183594 15.730469 18.964844 L 14.757812 18.15625 " fill-opacity="1" fill-rule="nonzero"/><path fill="#ffffff" d="M 13.175781 18.125 C 12.976562 18.390625 12.785156 18.664062 12.605469 18.9375 L 13.65625 19.636719 C 13.828125 19.378906 14.003906 19.128906 14.1875 18.878906 L 13.175781 18.125 " fill-opacity="1" fill-rule="nonzero"/><path fill="#ffffff" d="M 11.550781 18.242188 C 11.355469 18.535156 11.167969 18.839844 10.988281 19.144531 L 12.078125 19.78125 C 12.246094 19.496094 12.421875 19.214844 12.605469 18.9375 L 11.550781 18.242188 " fill-opacity="1" fill-rule="nonzero"/><path fill="#ffffff" d="M 9.898438 18.507812 C 9.707031 18.832031 9.527344 19.164062 9.355469 19.5 L 10.476562 20.074219 C 10.640625 19.761719 10.808594 19.449219 10.988281 19.144531 L 9.898438 18.507812 " fill-opacity="1" fill-rule="nonzero"/><path fill="#ffffff" d="M 13.789062 17.347656 C 14.003906 17.09375 14.21875 16.84375 14.449219 16.601562 L 15.371094 17.464844 C 15.160156 17.6875 14.957031 17.917969 14.757812 18.15625 L 13.789062 17.347656 " fill-opacity="1" fill-rule="nonzero"/><path fill="#ffffff" d="M 13.523438 15.742188 C 13.765625 15.480469 14.015625 15.230469 14.269531 14.984375 L 15.144531 15.894531 C 14.90625 16.125 14.671875 16.359375 14.449219 16.601562 L 13.523438 15.742188 " fill-opacity="1" fill-rule="nonzero"/><path fill="#ffffff" d="M 13.398438 14.070312 C 13.667969 13.808594 13.949219 13.554688 14.234375 13.308594 L 15.058594 14.269531 C 14.789062 14.5 14.527344 14.738281 14.269531 14.984375 L 13.398438 14.070312 " fill-opacity="1" fill-rule="nonzero"/><path fill="#ffffff" d="M 12.640625 15.714844 L 10.804688 14.097656 C 10.277344 14.699219 9.78125 15.324219 9.320312 15.980469 L 11.320312 17.390625 C 11.730469 16.808594 12.171875 16.25 12.640625 15.714844 Z M 12.738281 13.832031 C 12.777344 15.113281 12.941406 16.351562 13.210938 17.523438 C 12.007812 17.535156 10.765625 17.664062 9.511719 17.917969 C 9.160156 16.6875 8.910156 15.386719 8.785156 14.03125 C 10.132812 13.839844 11.457031 13.773438 12.738281 13.832031 " fill-opacity="1" fill-rule="nonzero"/><path fill="#ffffff" d="M 16.878906 5.671875 C 16.449219 5.867188 16.023438 6.078125 15.609375 6.296875 L 15.015625 5.183594 C 15.453125 4.949219 15.898438 4.730469 16.347656 4.523438 L 16.878906 5.671875 " fill-opacity="1" fill-rule="nonzero"/><path fill="#ffffff" d="M 16.199219 7.414062 C 15.804688 7.625 15.414062 7.84375 15.03125 8.078125 L 14.378906 6.996094 C 14.78125 6.75 15.191406 6.519531 15.609375 6.296875 L 16.199219 7.414062 " fill-opacity="1" fill-rule="nonzero"/><path fill="#ffffff" d="M 15.683594 9.15625 C 15.320312 9.375 14.960938 9.605469 14.613281 9.84375 L 13.898438 8.800781 C 14.269531 8.550781 14.648438 8.308594 15.03125 8.078125 L 15.683594 9.15625 " fill-opacity="1" fill-rule="nonzero"/><path fill="#ffffff" d="M 15.324219 10.886719 C 14.992188 11.113281 14.664062 11.351562 14.347656 11.59375 L 13.582031 10.589844 C 13.917969 10.332031 14.261719 10.085938 14.613281 9.84375 L 15.324219 10.886719 " fill-opacity="1" fill-rule="nonzero"/><path fill="#ffffff" d="M 17.40625 6.820312 C 17.8125 6.628906 18.226562 6.453125 18.640625 6.289062 L 18.179688 5.113281 C 17.738281 5.289062 17.304688 5.472656 16.878906 5.671875 L 17.40625 6.820312 " fill-opacity="1" fill-rule="nonzero"/><path fill="#ffffff" d="M 19.105469 7.464844 C 19.5 7.308594 19.898438 7.164062 20.304688 7.03125 L 19.90625 5.832031 C 19.480469 5.972656 19.058594 6.125 18.640625 6.289062 L 19.105469 7.464844 " fill-opacity="1" fill-rule="nonzero"/><path fill="#ffffff" d="M 20.699219 8.230469 C 21.078125 8.105469 21.464844 7.988281 21.851562 7.882812 L 21.523438 6.664062 C 21.113281 6.777344 20.707031 6.898438 20.304688 7.03125 L 20.699219 8.230469 " fill-opacity="1" fill-rule="nonzero"/><path fill="#ffffff" d="M 22.179688 9.101562 C 22.546875 9.003906 22.914062 8.917969 23.28125 8.839844 L 23.023438 7.605469 C 22.628906 7.6875 22.238281 7.78125 21.851562 7.882812 L 22.179688 9.101562 " fill-opacity="1" fill-rule="nonzero"/><path fill="#ffffff" d="M 20.574219 13.699219 C 20.296875 13.828125 20.019531 13.964844 19.75 14.109375 L 20.339844 15.226562 C 20.589844 15.09375 20.84375 14.964844 21.101562 14.847656 L 20.574219 13.699219 " fill-opacity="1" fill-rule="nonzero"/><path fill="#ffffff" d="M 19.15625 12.992188 C 18.863281 13.148438 18.574219 13.3125 18.292969 13.484375 L 18.945312 14.5625 C 19.207031 14.40625 19.476562 14.253906 19.75 14.109375 L 19.15625 12.992188 " fill-opacity="1" fill-rule="nonzero"/><path fill="#ffffff" d="M 17.640625 12.402344 C 17.335938 12.582031 17.039062 12.777344 16.746094 12.976562 L 17.457031 14.019531 C 17.730469 13.832031 18.007812 13.652344 18.292969 13.484375 L 17.640625 12.402344 " fill-opacity="1" fill-rule="nonzero"/><path fill="#ffffff" d="M 16.035156 11.933594 C 15.722656 12.144531 15.414062 12.367188 15.113281 12.597656 L 15.882812 13.597656 C 16.164062 13.382812 16.453125 13.175781 16.746094 12.976562 L 16.035156 11.933594 " fill-opacity="1" fill-rule="nonzero"/><path fill="#ffffff" d="M 20.046875 12.554688 C 20.34375 12.414062 20.648438 12.285156 20.957031 12.164062 L 21.421875 13.339844 C 21.136719 13.453125 20.851562 13.570312 20.574219 13.699219 L 20.046875 12.554688 " fill-opacity="1" fill-rule="nonzero"/><path fill="#ffffff" d="M 20.492188 10.988281 C 20.824219 10.859375 21.15625 10.738281 21.492188 10.628906 L 21.890625 11.828125 C 21.574219 11.929688 21.265625 12.042969 20.957031 12.164062 L 20.492188 10.988281 " fill-opacity="1" fill-rule="nonzero"/><path fill="#ffffff" d="M 21.097656 9.429688 C 21.453125 9.308594 21.816406 9.203125 22.179688 9.101562 L 22.507812 10.324219 C 22.167969 10.414062 21.828125 10.515625 21.492188 10.628906 L 21.097656 9.429688 " fill-opacity="1" fill-rule="nonzero"/><path fill="#ffffff" d="M 19.707031 10.585938 L 18.742188 8.339844 C 18.007812 8.652344 17.292969 9.007812 16.597656 9.402344 L 17.796875 11.53125 C 18.417969 11.183594 19.054688 10.867188 19.707031 10.585938 Z M 20.601562 8.929688 C 20.089844 10.101562 19.707031 11.289062 19.449219 12.464844 C 18.355469 11.957031 17.183594 11.542969 15.9375 11.238281 C 16.144531 9.972656 16.480469 8.691406 16.949219 7.410156 C 18.25 7.816406 19.472656 8.328125 20.601562 8.929688 " fill-opacity="1" fill-rule="nonzero"/><path fill="#ffffff" d="M 27.851562 3.351562 C 27.382812 3.34375 26.914062 3.351562 26.445312 3.371094 L 26.394531 2.109375 C 26.886719 2.089844 27.378906 2.082031 27.871094 2.089844 L 27.851562 3.351562 " fill-opacity="1" fill-rule="nonzero"/><path fill="#ffffff" d="M 26.496094 4.632812 C 26.050781 4.652344 25.605469 4.683594 25.160156 4.726562 L 25.035156 3.46875 C 25.503906 3.421875 25.972656 3.390625 26.445312 3.371094 L 26.496094 4.632812 " fill-opacity="1" fill-rule="nonzero"/><path fill="#ffffff" d="M 25.277344 5.984375 C 24.855469 6.023438 24.433594 6.074219 24.015625 6.140625 L 23.824219 4.890625 C 24.269531 4.824219 24.714844 4.769531 25.160156 4.726562 L 25.277344 5.984375 " fill-opacity="1" fill-rule="nonzero"/><path fill="#ffffff" d="M 24.207031 7.386719 C 23.808594 7.449219 23.414062 7.519531 23.023438 7.605469 L 22.761719 6.367188 C 23.179688 6.28125 23.597656 6.203125 24.015625 6.140625 L 24.207031 7.386719 " fill-opacity="1" fill-rule="nonzero"/><path fill="#ffffff" d="M 27.835938 4.613281 C 28.285156 4.621094 28.730469 4.640625 29.175781 4.671875 L 29.261719 3.410156 C 28.792969 3.378906 28.324219 3.359375 27.851562 3.351562 L 27.835938 4.613281 " fill-opacity="1" fill-rule="nonzero"/><path fill="#ffffff" d="M 29.089844 5.929688 C 29.515625 5.957031 29.9375 6 30.355469 6.050781 L 30.515625 4.796875 C 30.070312 4.742188 29.625 4.699219 29.175781 4.671875 L 29.089844 5.929688 " fill-opacity="1" fill-rule="nonzero"/><path fill="#ffffff" d="M 30.203125 7.304688 C 30.601562 7.355469 30.996094 7.414062 31.390625 7.484375 L 31.617188 6.246094 C 31.199219 6.167969 30.78125 6.105469 30.355469 6.050781 L 30.203125 7.304688 " fill-opacity="1" fill-rule="nonzero"/><path fill="#ffffff" d="M 31.167969 8.730469 C 31.539062 8.796875 31.910156 8.875 32.273438 8.960938 L 32.570312 7.734375 C 32.179688 7.640625 31.785156 7.558594 31.390625 7.484375 L 31.167969 8.730469 " fill-opacity="1" fill-rule="nonzero"/><path fill="#ffffff" d="M 27.734375 12.191406 C 27.425781 12.1875 27.117188 12.191406 26.808594 12.203125 L 26.859375 13.464844 C 27.144531 13.453125 27.433594 13.449219 27.71875 13.453125 L 27.734375 12.191406 " fill-opacity="1" fill-rule="nonzero"/><path fill="#ffffff" d="M 26.753906 10.941406 C 26.425781 10.957031 26.09375 10.980469 25.765625 11.011719 L 25.886719 12.265625 C 26.191406 12.238281 26.5 12.214844 26.808594 12.203125 L 26.753906 10.941406 " fill-opacity="1" fill-rule="nonzero"/><path fill="#ffffff" d="M 25.644531 9.753906 C 25.289062 9.789062 24.9375 9.832031 24.589844 9.882812 L 24.78125 11.132812 C 25.105469 11.082031 25.433594 11.042969 25.765625 11.011719 L 25.644531 9.753906 " fill-opacity="1" fill-rule="nonzero"/><path fill="#ffffff" d="M 24.394531 8.636719 C 24.023438 8.695312 23.652344 8.761719 23.28125 8.839844 L 23.542969 10.074219 C 23.890625 10.003906 24.238281 9.9375 24.589844 9.882812 L 24.394531 8.636719 " fill-opacity="1" fill-rule="nonzero"/><path fill="#ffffff" d="M 27.75 10.929688 C 28.082031 10.933594 28.414062 10.945312 28.746094 10.96875 L 28.660156 12.230469 C 28.351562 12.207031 28.042969 12.195312 27.734375 12.191406 L 27.75 10.929688 " fill-opacity="1" fill-rule="nonzero"/><path fill="#ffffff" d="M 28.832031 9.710938 C 29.183594 9.734375 29.539062 9.769531 29.890625 9.8125 L 29.734375 11.0625 C 29.40625 11.023438 29.078125 10.992188 28.746094 10.96875 L 28.832031 9.710938 " fill-opacity="1" fill-rule="nonzero"/><path fill="#ffffff" d="M 30.046875 8.558594 C 30.421875 8.605469 30.792969 8.660156 31.167969 8.730469 L 30.941406 9.972656 C 30.59375 9.90625 30.242188 9.855469 29.890625 9.8125 L 30.046875 8.558594 " fill-opacity="1" fill-rule="nonzero"/><path fill="#ffffff" d="M 28.292969 9.007812 L 28.390625 6.5625 C 27.59375 6.53125 26.792969 6.542969 25.996094 6.597656 L 26.160156 9.039062 C 26.871094 8.992188 27.582031 8.980469 28.292969 9.007812 Z M 29.816406 7.894531 C 28.847656 8.734375 27.992188 9.640625 27.25 10.59375 C 26.480469 9.664062 25.601562 8.78125 24.609375 7.96875 C 25.34375 6.917969 26.199219 5.90625 27.171875 4.953125 C 28.167969 5.878906 29.050781 6.867188 29.816406 7.894531 " fill-opacity="1" fill-rule="nonzero"/><path fill="#ffffff" d="M 38.765625 5.972656 C 38.34375 5.765625 37.914062 5.566406 37.480469 5.382812 L 37.976562 4.222656 C 38.433594 4.414062 38.882812 4.621094 39.324219 4.839844 L 38.765625 5.972656 " fill-opacity="1" fill-rule="nonzero"/><path fill="#ffffff" d="M 36.984375 6.542969 C 36.574219 6.367188 36.15625 6.203125 35.734375 6.050781 L 36.164062 4.863281 C 36.609375 5.023438 37.046875 5.195312 37.480469 5.382812 L 36.984375 6.542969 " fill-opacity="1" fill-rule="nonzero"/><path fill="#ffffff" d="M 35.304688 7.238281 C 34.90625 7.09375 34.5 6.960938 34.09375 6.839844 L 34.457031 5.628906 C 34.886719 5.757812 35.3125 5.898438 35.734375 6.050781 L 35.304688 7.238281 " fill-opacity="1" fill-rule="nonzero"/><path fill="#ffffff" d="M 33.730469 8.046875 C 33.347656 7.933594 32.960938 7.828125 32.570312 7.734375 L 32.863281 6.507812 C 33.277344 6.605469 33.6875 6.714844 34.09375 6.839844 L 33.730469 8.046875 " fill-opacity="1" fill-rule="nonzero"/><path fill="#ffffff" d="M 38.207031 7.105469 C 38.609375 7.304688 39.003906 7.515625 39.394531 7.734375 L 40.015625 6.636719 C 39.605469 6.402344 39.1875 6.183594 38.765625 5.972656 L 38.207031 7.105469 " fill-opacity="1" fill-rule="nonzero"/><path fill="#ffffff" d="M 38.773438 8.835938 C 39.140625 9.042969 39.503906 9.261719 39.863281 9.492188 L 40.546875 8.429688 C 40.167969 8.1875 39.785156 7.957031 39.394531 7.734375 L 38.773438 8.835938 " fill-opacity="1" fill-rule="nonzero"/><path fill="#ffffff" d="M 39.179688 10.554688 C 39.519531 10.769531 39.851562 10.996094 40.175781 11.230469 L 40.914062 10.210938 C 40.570312 9.960938 40.21875 9.722656 39.863281 9.492188 L 39.179688 10.554688 " fill-opacity="1" fill-rule="nonzero"/><path fill="#ffffff" d="M 39.433594 12.257812 C 39.738281 12.476562 40.039062 12.707031 40.335938 12.945312 L 41.128906 11.964844 C 40.816406 11.710938 40.5 11.46875 40.175781 11.230469 L 39.433594 12.257812 " fill-opacity="1" fill-rule="nonzero"/><path fill="#ffffff" d="M 34.847656 13.898438 C 34.570312 13.761719 34.292969 13.632812 34.011719 13.511719 L 33.515625 14.671875 C 33.777344 14.785156 34.035156 14.902344 34.289062 15.03125 L 34.847656 13.898438 " fill-opacity="1" fill-rule="nonzero"/><path fill="#ffffff" d="M 34.507812 12.351562 C 34.203125 12.222656 33.894531 12.101562 33.585938 11.988281 L 33.15625 13.175781 C 33.441406 13.277344 33.730469 13.390625 34.011719 13.511719 L 34.507812 12.351562 " fill-opacity="1" fill-rule="nonzero"/><path fill="#ffffff" d="M 34.015625 10.800781 C 33.679688 10.679688 33.34375 10.566406 33.007812 10.464844 L 32.644531 11.675781 C 32.960938 11.773438 33.273438 11.875 33.585938 11.988281 L 34.015625 10.800781 " fill-opacity="1" fill-rule="nonzero"/><path fill="#ffffff" d="M 33.367188 9.257812 C 33.007812 9.148438 32.640625 9.050781 32.273438 8.960938 L 31.980469 10.191406 C 32.324219 10.273438 32.667969 10.363281 33.007812 10.464844 L 33.367188 9.257812 " fill-opacity="1" fill-rule="nonzero"/><path fill="#ffffff" d="M 35.40625 12.765625 C 35.703125 12.910156 35.996094 13.066406 36.285156 13.230469 L 35.664062 14.328125 C 35.394531 14.179688 35.125 14.035156 34.847656 13.898438 L 35.40625 12.765625 " fill-opacity="1" fill-rule="nonzero"/><path fill="#ffffff" d="M 36.90625 12.132812 C 37.214844 12.304688 37.519531 12.488281 37.816406 12.679688 L 37.132812 13.742188 C 36.855469 13.5625 36.574219 13.394531 36.285156 13.230469 L 36.90625 12.132812 " fill-opacity="1" fill-rule="nonzero"/><path fill="#ffffff" d="M 38.5 11.617188 C 38.816406 11.820312 39.128906 12.035156 39.433594 12.257812 L 38.695312 13.277344 C 38.40625 13.070312 38.113281 12.871094 37.816406 12.679688 L 38.5 11.617188 " fill-opacity="1" fill-rule="nonzero"/><path fill="#ffffff" d="M 36.722656 11.265625 L 37.867188 9.101562 C 37.160156 8.730469 36.433594 8.394531 35.691406 8.101562 L 34.789062 10.375 C 35.449219 10.636719 36.09375 10.9375 36.722656 11.265625 Z M 38.574219 10.917969 C 37.339844 11.261719 36.175781 11.707031 35.101562 12.246094 C 34.808594 11.078125 34.394531 9.902344 33.847656 8.742188 C 34.960938 8.109375 36.167969 7.5625 37.460938 7.121094 C 37.960938 8.386719 38.332031 9.664062 38.574219 10.917969 " fill-opacity="1" fill-rule="nonzero"/><path fill="#ffffff" d="M 47.476562 13.035156 C 47.183594 12.667969 46.882812 12.304688 46.570312 11.953125 L 47.515625 11.117188 C 47.84375 11.488281 48.160156 11.867188 48.46875 12.253906 L 47.476562 13.035156 " fill-opacity="1" fill-rule="nonzero"/><path fill="#ffffff" d="M 45.625 12.789062 C 45.328125 12.453125 45.023438 12.125 44.707031 11.808594 L 45.609375 10.917969 C 45.9375 11.253906 46.261719 11.597656 46.570312 11.953125 L 45.625 12.789062 " fill-opacity="1" fill-rule="nonzero"/><path fill="#ffffff" d="M 43.808594 12.695312 C 43.511719 12.390625 43.207031 12.097656 42.890625 11.8125 L 43.738281 10.875 C 44.070312 11.179688 44.394531 11.488281 44.707031 11.808594 L 43.808594 12.695312 " fill-opacity="1" fill-rule="nonzero"/><path fill="#ffffff" d="M 42.042969 12.746094 C 41.746094 12.476562 41.441406 12.214844 41.128906 11.964844 L 41.925781 10.984375 C 42.253906 11.25 42.578125 11.527344 42.890625 11.8125 L 42.042969 12.746094 " fill-opacity="1" fill-rule="nonzero"/><path fill="#ffffff" d="M 46.484375 13.816406 C 46.761719 14.171875 47.03125 14.53125 47.289062 14.894531 L 48.320312 14.171875 C 48.050781 13.785156 47.769531 13.40625 47.476562 13.035156 L 46.484375 13.816406 " fill-opacity="1" fill-rule="nonzero"/><path fill="#ffffff" d="M 46.253906 15.621094 C 46.5 15.96875 46.734375 16.324219 46.957031 16.683594 L 48.03125 16.015625 C 47.792969 15.636719 47.546875 15.261719 47.289062 14.894531 L 46.253906 15.621094 " fill-opacity="1" fill-rule="nonzero"/><path fill="#ffffff" d="M 45.886719 17.351562 C 46.097656 17.691406 46.300781 18.039062 46.492188 18.390625 L 47.601562 17.78125 C 47.398438 17.410156 47.183594 17.042969 46.957031 16.683594 L 45.886719 17.351562 " fill-opacity="1" fill-rule="nonzero"/><path fill="#ffffff" d="M 45.386719 18.996094 C 45.566406 19.328125 45.738281 19.664062 45.902344 20.003906 L 47.042969 19.460938 C 46.871094 19.097656 46.6875 18.742188 46.492188 18.390625 L 45.386719 18.996094 " fill-opacity="1" fill-rule="nonzero"/><path fill="#ffffff" d="M 40.539062 18.511719 C 40.347656 18.269531 40.148438 18.035156 39.945312 17.804688 L 39 18.640625 C 39.1875 18.851562 39.371094 19.070312 39.546875 19.292969 L 40.539062 18.511719 " fill-opacity="1" fill-rule="nonzero"/><path fill="#ffffff" d="M 40.890625 16.96875 C 40.671875 16.71875 40.445312 16.476562 40.214844 16.242188 L 39.316406 17.128906 C 39.53125 17.347656 39.742188 17.570312 39.945312 17.804688 L 40.890625 16.96875 " fill-opacity="1" fill-rule="nonzero"/><path fill="#ffffff" d="M 41.113281 15.355469 C 40.863281 15.101562 40.609375 14.855469 40.34375 14.617188 L 39.496094 15.554688 C 39.742188 15.777344 39.980469 16.003906 40.214844 16.242188 L 41.113281 15.355469 " fill-opacity="1" fill-rule="nonzero"/><path fill="#ffffff" d="M 41.195312 13.683594 C 40.914062 13.429688 40.625 13.183594 40.335938 12.945312 L 39.539062 13.925781 C 39.8125 14.148438 40.082031 14.378906 40.34375 14.617188 L 41.195312 13.683594 " fill-opacity="1" fill-rule="nonzero"/><path fill="#ffffff" d="M 41.53125 17.730469 C 41.734375 17.988281 41.929688 18.257812 42.121094 18.527344 L 41.089844 19.253906 C 40.914062 19 40.726562 18.753906 40.539062 18.511719 L 41.53125 17.730469 " fill-opacity="1" fill-rule="nonzero"/><path fill="#ffffff" d="M 43.15625 17.800781 C 43.359375 18.089844 43.554688 18.386719 43.742188 18.6875 L 42.671875 19.355469 C 42.496094 19.074219 42.3125 18.796875 42.121094 18.527344 L 43.15625 17.800781 " fill-opacity="1" fill-rule="nonzero"/><path fill="#ffffff" d="M 44.8125 18.019531 C 45.011719 18.339844 45.203125 18.664062 45.386719 18.996094 L 44.277344 19.605469 C 44.109375 19.292969 43.929688 18.988281 43.742188 18.6875 L 44.8125 18.019531 " fill-opacity="1" fill-rule="nonzero"/><path fill="#ffffff" d="M 43.363281 16.941406 L 45.320312 15.476562 C 44.84375 14.835938 44.328125 14.222656 43.785156 13.636719 L 41.996094 15.304688 C 42.476562 15.824219 42.9375 16.371094 43.363281 16.941406 Z M 45.183594 17.421875 C 43.921875 17.199219 42.679688 17.105469 41.472656 17.128906 C 41.714844 15.949219 41.839844 14.707031 41.847656 13.425781 C 43.125 13.335938 44.449219 13.359375 45.804688 13.515625 C 45.714844 14.871094 45.503906 16.179688 45.183594 17.421875 " fill-opacity="1" fill-rule="nonzero"/><path fill="#ffffff" d="M 52.3125 23.167969 C 52.207031 22.707031 52.089844 22.25 51.960938 21.796875 L 53.175781 21.449219 C 53.3125 21.925781 53.433594 22.40625 53.542969 22.890625 L 52.3125 23.167969 " fill-opacity="1" fill-rule="nonzero"/><path fill="#ffffff" d="M 50.746094 22.140625 C 50.625 21.710938 50.488281 21.28125 50.34375 20.859375 L 51.535156 20.445312 C 51.691406 20.890625 51.832031 21.34375 51.960938 21.796875 L 50.746094 22.140625 " fill-opacity="1" fill-rule="nonzero"/><path fill="#ffffff" d="M 49.148438 21.273438 C 49.011719 20.871094 48.859375 20.476562 48.699219 20.082031 L 49.867188 19.601562 C 50.039062 20.015625 50.195312 20.4375 50.34375 20.859375 L 49.148438 21.273438 " fill-opacity="1" fill-rule="nonzero"/><path fill="#ffffff" d="M 47.53125 20.5625 C 47.378906 20.1875 47.214844 19.824219 47.042969 19.460938 L 48.183594 18.917969 C 48.363281 19.300781 48.535156 19.6875 48.699219 20.082031 L 47.53125 20.5625 " fill-opacity="1" fill-rule="nonzero"/><path fill="#ffffff" d="M 51.078125 23.445312 C 51.175781 23.882812 51.265625 24.324219 51.339844 24.765625 L 52.582031 24.558594 C 52.507812 24.089844 52.414062 23.628906 52.3125 23.167969 L 51.078125 23.445312 " fill-opacity="1" fill-rule="nonzero"/><path fill="#ffffff" d="M 50.09375 24.972656 C 50.164062 25.390625 50.21875 25.8125 50.269531 26.234375 L 51.523438 26.097656 C 51.472656 25.652344 51.414062 25.207031 51.339844 24.765625 L 50.09375 24.972656 " fill-opacity="1" fill-rule="nonzero"/><path fill="#ffffff" d="M 49.011719 26.375 C 49.054688 26.773438 49.089844 27.171875 49.109375 27.574219 L 50.371094 27.503906 C 50.347656 27.082031 50.3125 26.65625 50.269531 26.234375 L 49.011719 26.375 " fill-opacity="1" fill-rule="nonzero"/><path fill="#ffffff" d="M 47.851562 27.640625 C 47.871094 28.019531 47.882812 28.398438 47.882812 28.773438 L 49.144531 28.773438 C 49.144531 28.375 49.132812 27.972656 49.109375 27.574219 L 47.851562 27.640625 " fill-opacity="1" fill-rule="nonzero"/><path fill="#ffffff" d="M 43.6875 25.109375 C 43.621094 24.808594 43.542969 24.515625 43.460938 24.21875 L 42.246094 24.5625 C 42.324219 24.835938 42.394531 25.113281 42.457031 25.386719 L 43.6875 25.109375 " fill-opacity="1" fill-rule="nonzero"/><path fill="#ffffff" d="M 44.675781 23.871094 C 44.585938 23.554688 44.484375 23.242188 44.378906 22.925781 L 43.183594 23.339844 C 43.285156 23.632812 43.375 23.921875 43.460938 24.21875 L 44.675781 23.871094 " fill-opacity="1" fill-rule="nonzero"/><path fill="#ffffff" d="M 45.570312 22.511719 C 45.453125 22.179688 45.328125 21.847656 45.195312 21.519531 L 44.023438 22 C 44.152344 22.304688 44.269531 22.613281 44.378906 22.925781 L 45.570312 22.511719 " fill-opacity="1" fill-rule="nonzero"/><path fill="#ffffff" d="M 46.363281 21.039062 C 46.21875 20.691406 46.066406 20.347656 45.902344 20.003906 L 44.761719 20.550781 C 44.914062 20.867188 45.058594 21.191406 45.195312 21.519531 L 46.363281 21.039062 " fill-opacity="1" fill-rule="nonzero"/><path fill="#ffffff" d="M 44.921875 24.832031 C 44.992188 25.15625 45.054688 25.480469 45.109375 25.804688 L 43.867188 26.015625 C 43.8125 25.710938 43.753906 25.410156 43.6875 25.109375 L 44.921875 24.832031 " fill-opacity="1" fill-rule="nonzero"/><path fill="#ffffff" d="M 46.355469 25.597656 C 46.414062 25.949219 46.464844 26.296875 46.503906 26.648438 L 45.246094 26.789062 C 45.210938 26.460938 45.167969 26.132812 45.109375 25.804688 L 46.355469 25.597656 " fill-opacity="1" fill-rule="nonzero"/><path fill="#ffffff" d="M 47.757812 26.511719 C 47.800781 26.886719 47.832031 27.265625 47.851562 27.640625 L 46.589844 27.710938 C 46.570312 27.355469 46.542969 27.003906 46.503906 26.648438 L 47.757812 26.511719 " fill-opacity="1" fill-rule="nonzero"/><path fill="#ffffff" d="M 46.914062 24.910156 L 49.3125 24.4375 C 49.15625 23.65625 48.960938 22.878906 48.722656 22.117188 L 46.386719 22.847656 C 46.601562 23.527344 46.773438 24.214844 46.914062 24.910156 Z M 48.347656 26.132812 C 47.308594 25.386719 46.226562 24.765625 45.128906 24.269531 C 45.855469 23.308594 46.507812 22.242188 47.0625 21.089844 C 48.253906 21.554688 49.441406 22.152344 50.597656 22.875 C 49.929688 24.066406 49.171875 25.152344 48.347656 26.132812 " fill-opacity="1" fill-rule="nonzero"/></svg>